<svg xmlns="http://www.w3.org/2000/svg" width="1920" height="1080" viewBox="0 0 1920 1080" role="img" aria-labelledby="title description" data-theme="graphite" data-theme-appearance="light">
  <title id="title">Sidecar / Agent Lifecycle &amp; Guarded Control</title><desc id="description">How Sidecar injects hooks, tracks agent statuses, and safely orchestrates secondary agents.. Architecture structure.</desc>
  <defs><marker id="arrow" viewBox="0 0 10 10" refX="9" refY="5" markerWidth="5" markerHeight="5" orient="auto-start-reverse"><path d="M 0 0 L 10 5 L 0 10 z" fill="#85857f"/></marker></defs>
  <rect width="1920" height="1080" fill="#f8f8f6"/>
  <g font-family="Arial, Helvetica, sans-serif"><text x="96" y="58" font-size="12" letter-spacing="3" fill="#626b6f">FRACTAL / SYSTEM MODEL</text>
  <g data-export-layer="title"><text x="96" y="116" font-size="48" font-weight="600" fill="#292927"><tspan x="96" dy="0">Sidecar / Agent Lifecycle &amp; Guarded Control</tspan></text></g>
  <g data-export-layer="subtitle"><text x="96" y="170" font-size="19" font-weight="400" fill="#74746f"><tspan x="96" dy="0">How Sidecar injects hooks, tracks agent statuses, and safely orchestrates secondary agents.</tspan></text></g>
  <g data-export-layer="diagram" transform="translate(275.018 210) scale(0.945)"><g data-element="agents"><rect x="380.81" y="60.5" width="730.9599999999999" height="718" rx="14" fill="#eeeeeb" stroke="#d5d5d0" stroke-width="1.3"/>
      <g transform="translate(1085.77 77.5) scale(0.667)" color="#9A91C4" opacity="0.85"><title>Subsystem</title><g fill="none" stroke="currentColor" stroke-width="1.5" stroke-linecap="round" stroke-linejoin="round"><rect x="3" y="8" width="13" height="13" rx="2"/><path d="M8 5V3h13v13h-2"/></g></g>
      <text x="404.81" y="90.5" font-size="14" font-weight="600" fill="#292927"><tspan x="404.81" dy="0">Agent Integration &amp; Control</tspan></text>
      <text x="400.81" y="114.5" font-size="12" font-weight="400" fill="#6d6d68"></text>
      </g><path d="M1087.77,379.5 L1136.77,379.5 L1136.77,44.5 L24,44.5 L24,690 L43,690" fill="none" stroke="#85857f" stroke-width="1.5" marker-end="url(#arrow)"/><path d="M160.5,690 L850.95,690" fill="none" stroke="#85857f" stroke-width="1.5" marker-end="url(#arrow)"/><path d="M633.37,608.5 L649.37,608.5 L649.37,630 L818.95,630 L818.95,690 L850.95,690" fill="none" stroke="#85857f" stroke-width="1.5" marker-end="url(#arrow)"/><path d="M633.37,608.5 L649.37,608.5 L649.37,538.5 L850.95,538.5" fill="none" stroke="#85857f" stroke-width="1.5" marker-end="url(#arrow)"/><path d="M633.37,608.5 L649.37,608.5 L649.37,210 L850.95,210" fill="none" stroke="#85857f" stroke-width="1.5" marker-end="url(#arrow)"/><path d="M633.37,608.5 L1136.77,608.5 L1136.77,667.5 L1290.29,667.5 L1290.29,608.5 L1322.29,608.5" fill="none" stroke="#85857f" stroke-width="1.5" marker-end="url(#arrow)"/><path d="M633.37,608.5 L1322.29,608.5" fill="none" stroke="#85857f" stroke-width="1.5" marker-end="url(#arrow)"/><path d="M160.5,608.5 L404.81,608.5" fill="none" stroke="#85857f" stroke-width="1.5" marker-end="url(#arrow)"/><g data-element="agents.catalog"><rect x="851.9499999999999" y="484.5" width="212" height="108" rx="14" fill="#ffffff" stroke="#d5d5d0" stroke-width="1.3"/>
      <g transform="translate(1037.95 501.5) scale(0.667)" color="#9A91C4" opacity="0.85"><title>Component</title><g fill="none" stroke="currentColor" stroke-width="1.5" stroke-linecap="round" stroke-linejoin="round"><path d="M7 7V4h13v16H7v-3m0-6v2"/><rect x="3" y="7" width="8" height="4" rx="1"/><rect x="3" y="13" width="8" height="4" rx="1"/></g></g>
      <text x="871.95" y="516.5" font-size="14" font-weight="600" fill="#292927"><tspan x="871.95" dy="0">Agent Catalog</tspan></text>
      <text x="871.95" y="540.5" font-size="12" font-weight="400" fill="#6d6d68"><tspan x="871.95" dy="0">Defines supported agent</tspan><tspan x="871.95" dy="17">families, argv templates,</tspan><tspan x="871.95" dy="17">and launch configurations.</tspan></text>
      </g><g data-element="agents.integration"><rect x="874.77" y="306.5" width="212" height="146" rx="14" fill="#ffffff" stroke="#d5d5d0" stroke-width="1.3"/>
      <g transform="translate(1060.77 323.5) scale(0.667)" color="#9A91C4" opacity="0.85"><title>Component</title><g fill="none" stroke="currentColor" stroke-width="1.5" stroke-linecap="round" stroke-linejoin="round"><path d="M7 7V4h13v16H7v-3m0-6v2"/><rect x="3" y="7" width="8" height="4" rx="1"/><rect x="3" y="13" width="8" height="4" rx="1"/></g></g>
      <text x="894.77" y="338.5" font-size="14" font-weight="600" fill="#292927"><tspan x="894.77" dy="0">Asset Injection &amp;</tspan><tspan x="894.77" dy="20">Hooks</tspan></text>
      <text x="894.77" y="383.5" font-size="12" font-weight="400" fill="#6d6d68"><tspan x="894.77" dy="0">Installs non-intrusive</tspan><tspan x="894.77" dy="17">lifecycle hooks and</tspan><tspan x="894.77" dy="17">extensions into agent</tspan><tspan x="894.77" dy="17">configuration directories.</tspan></text>
      </g><g data-element="agents.lifecycle"><rect x="851.9499999999999" y="625.5" width="212" height="129" rx="14" fill="#ffffff" stroke="#d5d5d0" stroke-width="1.3"/>
      <g transform="translate(1037.95 642.5) scale(0.667)" color="#9A91C4" opacity="0.85"><title>Component</title><g fill="none" stroke="currentColor" stroke-width="1.5" stroke-linecap="round" stroke-linejoin="round"><path d="M7 7V4h13v16H7v-3m0-6v2"/><rect x="3" y="7" width="8" height="4" rx="1"/><rect x="3" y="13" width="8" height="4" rx="1"/></g></g>
      <text x="871.95" y="657.5" font-size="14" font-weight="600" fill="#292927"><tspan x="871.95" dy="0">Lifecycle &amp;</tspan><tspan x="871.95" dy="20">Status</tspan></text>
      <text x="871.95" y="702.5" font-size="12" font-weight="400" fill="#6d6d68"><tspan x="871.95" dy="0">Tracks agent states</tspan><tspan x="871.95" dy="17">(running, waiting_for_input,</tspan><tspan x="871.95" dy="17">idle) and session identities.</tspan></text>
      </g><g data-element="agents.control"><rect x="405.81" y="544" width="226.55999999999995" height="129" rx="14" fill="#ffffff" stroke="#d5d5d0" stroke-width="1.3"/>
      <g transform="translate(606.37 561) scale(0.667)" color="#9A91C4" opacity="0.85"><title>Component</title><g fill="none" stroke="currentColor" stroke-width="1.5" stroke-linecap="round" stroke-linejoin="round"><path d="M7 7V4h13v16H7v-3m0-6v2"/><rect x="3" y="7" width="8" height="4" rx="1"/><rect x="3" y="13" width="8" height="4" rx="1"/></g></g>
      <text x="425.81" y="576" font-size="14" font-weight="600" fill="#292927"><tspan x="425.81" dy="0">Agent Coordination</tspan><tspan x="425.81" dy="20">Driver</tspan></text>
      <text x="425.81" y="621" font-size="12" font-weight="400" fill="#6d6d68"><tspan x="425.81" dy="0">Discovers, starts, prompts,</tspan><tspan x="425.81" dy="17">reads, and sends keys to</tspan><tspan x="425.81" dy="17">agents behind safety gates.</tspan></text>
      </g><g data-element="agents.adapters"><rect x="851.9499999999999" y="145.5" width="234.81999999999996" height="129" rx="14" fill="#ffffff" stroke="#d5d5d0" stroke-width="1.3"/>
      <g transform="translate(1060.77 162.5) scale(0.667)" color="#9A91C4" opacity="0.85"><title>Adapter</title><g fill="none" stroke="currentColor" stroke-width="1.5" stroke-linecap="round" stroke-linejoin="round"><path d="M3 7h14l-3-3m3 3-3 3M21 17H7l3-3m-3 3 3 3"/></g></g>
      <text x="871.95" y="177.5" font-size="14" font-weight="600" fill="#292927"><tspan x="871.95" dy="0">History &amp; Session</tspan><tspan x="871.95" dy="20">Adapters</tspan></text>
      <text x="871.95" y="222.5" font-size="12" font-weight="400" fill="#6d6d68"><tspan x="871.95" dy="0">Parses chat transcripts and</tspan><tspan x="871.95" dy="17">session logs from Claude, Codex,</tspan><tspan x="871.95" dy="17">Cursor, Pi, and Warp.</tspan></text>
      </g><g data-outside-port="external" transform="translate(44 666.5)" role="group" aria-label="Outside scope: External Systems &amp; Runtimes. 2 connections."><rect width="115.5" height="47" rx="7" fill="#ffffff" stroke="#7d7d77" stroke-width="1.2"/><text x="57.75" y="17" text-anchor="middle" font-size="10" font-weight="600" fill="#292927">External Systems &amp;</text><text x="57.75" y="28" text-anchor="middle" font-size="10" font-weight="600" fill="#292927">Runtimes</text><text x="57.75" y="40" text-anchor="middle" font-size="8" fill="#6d6d68">outside scope</text></g><g data-outside-port="terminal" transform="translate(1323.29 585)" role="group" aria-label="Outside scope: Terminal Fidelity Engine. 2 connections."><rect width="102.1" height="47" rx="7" fill="#ffffff" stroke="#7d7d77" stroke-width="1.2"/><text x="51.05" y="17" text-anchor="middle" font-size="10" font-weight="600" fill="#292927">Terminal Fidelity</text><text x="51.05" y="28" text-anchor="middle" font-size="10" font-weight="600" fill="#292927">Engine</text><text x="51.05" y="40" text-anchor="middle" font-size="8" fill="#6d6d68">outside scope</text></g><g data-outside-port="cli" transform="translate(41 590.5)" role="group" aria-label="Outside scope: Non-Interactive CLI. 1 connection."><rect width="118.5" height="36" rx="7" fill="#ffffff" stroke="#7d7d77" stroke-width="1.2"/><text x="59.25" y="17" text-anchor="middle" font-size="10" font-weight="600" fill="#292927">Non-Interactive CLI</text><text x="59.25" y="29" text-anchor="middle" font-size="8" fill="#6d6d68">outside scope</text></g><g><rect x="216.03500000000003" y="27" width="100.23999999999998" height="38" rx="5" fill="#f8f8f6"/><text x="266.15500000000003" y="40" text-anchor="middle" font-size="11" fill="#62625e"><tspan x="266.15500000000003" dy="0">Injects hooks &amp;</tspan><tspan x="266.15500000000003" dy="15">configs</tspan></text></g><g><rect x="214.38500000000005" y="672.5" width="103.53999999999999" height="38" rx="5" fill="#f8f8f6"/><text x="266.15500000000003" y="685.5" text-anchor="middle" font-size="11" fill="#62625e"><tspan x="266.15500000000003" dy="0">Emits session</tspan><tspan x="266.15500000000003" dy="15">lifecycle events</tspan></text></g><g><rect x="695.2849999999999" y="636" width="93.74999999999999" height="38" rx="5" fill="#f8f8f6"/><text x="742.1599999999999" y="649" text-anchor="middle" font-size="11" fill="#62625e"><tspan x="742.1599999999999" dy="0">Verifies agent</tspan><tspan x="742.1599999999999" dy="15">availability</tspan></text></g><g><rect x="687.53" y="544.5" width="109.25999999999996" height="38" rx="5" fill="#f8f8f6"/><text x="742.16" y="557.5" text-anchor="middle" font-size="11" fill="#62625e"><tspan x="742.16" dy="0">Reads agent argv</tspan><tspan x="742.16" dy="15">definitions</tspan></text></g><g><rect x="681.3699999999999" y="216" width="121.57999999999997" height="38" rx="5" fill="#f8f8f6"/><text x="742.1599999999999" y="229" text-anchor="middle" font-size="11" fill="#62625e"><tspan x="742.1599999999999" dy="0">Extracts</tspan><tspan x="742.1599999999999" dy="15">conversation turns</tspan></text></g><g><rect x="1170.035" y="650" width="102.98999999999997" height="38" rx="5" fill="#f8f8f6"/><text x="1221.53" y="663" text-anchor="middle" font-size="11" fill="#62625e"><tspan x="1221.53" dy="0">Types prompts &amp;</tspan><tspan x="1221.53" dy="15">commands</tspan></text></g><g><rect x="1168.77" y="591" width="105.51999999999997" height="38" rx="5" fill="#f8f8f6"/><text x="1221.53" y="604" text-anchor="middle" font-size="11" fill="#62625e"><tspan x="1221.53" dy="0">Reads unwrapped</tspan><tspan x="1221.53" dy="15">output buffer</tspan></text></g><g><rect x="208.50000000000006" y="591" width="115.30999999999996" height="38" rx="5" fill="#f8f8f6"/><text x="266.15500000000003" y="604" text-anchor="middle" font-size="11" fill="#62625e"><tspan x="266.15500000000003" dy="0">Coordinates agent</tspan><tspan x="266.15500000000003" dy="15">execution</tspan></text></g></g>
  <g data-export-layer="legend"></g><path d="M96 1010H1824" stroke="#ddddda"/><text x="96" y="1044" font-size="13" fill="#7d7d77">STRUCTURE · CURRENT SYSTEM</text><text x="1824" y="1044" text-anchor="end" font-size="13" fill="#7d7d77">FOCUS: Agent Integration &amp; Control · 5 external connections drawn as outside ports</text></g></svg>
