<svg xmlns="http://www.w3.org/2000/svg" width="1920" height="1080" viewBox="0 0 1920 1080" role="img" aria-labelledby="title description" data-theme="graphite" data-theme-appearance="light">
  <title id="title">Sidecar / Agent Lifecycle &amp; Guarded Control</title><desc id="description">How Sidecar injects hooks, tracks agent statuses, and safely orchestrates secondary agents.. Architecture structure.</desc>
  <defs><marker id="arrow" viewBox="0 0 10 10" refX="9" refY="5" markerWidth="5" markerHeight="5" orient="auto-start-reverse"><path d="M 0 0 L 10 5 L 0 10 z" fill="#85857f"/></marker></defs>
  <rect width="1920" height="1080" fill="#f8f8f6"/>
  <g font-family="Arial, Helvetica, sans-serif"><text x="96" y="58" font-size="12" letter-spacing="3" fill="#626b6f">FRACTAL / SYSTEM MODEL</text>
  <g data-export-layer="title"><text x="96" y="116" font-size="48" font-weight="600" fill="#292927"><tspan x="96" dy="0">Sidecar / Agent Lifecycle &amp; Guarded Control</tspan></text></g>
  <g data-export-layer="subtitle"><text x="96" y="170" font-size="19" font-weight="400" fill="#74746f"><tspan x="96" dy="0">How Sidecar injects hooks, tracks agent statuses, and safely orchestrates secondary agents.</tspan></text></g>
  <g data-export-layer="diagram" transform="translate(502.272 210) scale(1.105)"><g data-element="agents"><rect x="25" y="24" width="778.5" height="638" rx="14" fill="#eeeeeb" stroke="#d5d5d0" stroke-width="1.3"/>
      
      <text x="49" y="54" font-size="17" font-weight="600" fill="#292927"><tspan x="49" dy="0">Agent Integration &amp; Control</tspan></text>
      <text x="45" y="80" font-size="12" font-weight="400" fill="#6d6d68"></text>
      </g><path d="M307,554.5 L521.5,554.5" fill="none" stroke="#85857f" stroke-width="1.5" marker-end="url(#arrow)"/><path d="M307,554.5 L323,554.5 L323,367 L521.5,367" fill="none" stroke="#85857f" stroke-width="1.5" marker-end="url(#arrow)"/><path d="M307,554.5 L323,554.5 L323,188 L521.5,188" fill="none" stroke="#85857f" stroke-width="1.5" marker-end="url(#arrow)"/><g data-element="agents.catalog"><rect x="522.5" y="295" width="212" height="144" rx="14" fill="#ffffff" stroke="#d5d5d0" stroke-width="1.3"/>
      <text x="542.5" y="323" font-size="10" letter-spacing="1" fill="#9A91C4">COMPONENT</text>
      <text x="542.5" y="344" font-size="17" font-weight="600" fill="#292927"><tspan x="542.5" dy="0">Agent Catalog</tspan></text>
      <text x="542.5" y="370" font-size="12" font-weight="400" fill="#6d6d68"><tspan x="542.5" dy="0">Defines supported agent</tspan><tspan x="542.5" dy="17">families, argv templates,</tspan><tspan x="542.5" dy="17">and launch</tspan><tspan x="542.5" dy="17">configurations.</tspan></text>
      </g><g data-element="agents.integration"><rect x="50" y="297.5" width="256" height="150" rx="14" fill="#ffffff" stroke="#d5d5d0" stroke-width="1.3"/>
      <text x="70" y="325.5" font-size="10" letter-spacing="1" fill="#9A91C4">COMPONENT</text>
      <text x="70" y="346.5" font-size="17" font-weight="600" fill="#292927"><tspan x="70" dy="0">Asset Injection &amp;</tspan><tspan x="70" dy="22">Hooks</tspan></text>
      <text x="70" y="395.5" font-size="12" font-weight="400" fill="#6d6d68"><tspan x="70" dy="0">Installs non-intrusive lifecycle</tspan><tspan x="70" dy="17">hooks and extensions into agent</tspan><tspan x="70" dy="17">configuration directories.</tspan></text>
      </g><g data-element="agents.lifecycle"><rect x="522.5" y="471" width="216.38000000000008" height="167" rx="14" fill="#ffffff" stroke="#d5d5d0" stroke-width="1.3"/>
      <text x="542.5" y="499" font-size="10" letter-spacing="1" fill="#9A91C4">COMPONENT</text>
      <text x="542.5" y="520" font-size="17" font-weight="600" fill="#292927"><tspan x="542.5" dy="0">Lifecycle &amp;</tspan><tspan x="542.5" dy="22">Status</tspan></text>
      <text x="542.5" y="569" font-size="12" font-weight="400" fill="#6d6d68"><tspan x="542.5" dy="0">Tracks agent states</tspan><tspan x="542.5" dy="17">(running,</tspan><tspan x="542.5" dy="17">waiting_for_input, idle)</tspan><tspan x="542.5" dy="17">and session identities.</tspan></text>
      </g><g data-element="agents.control"><rect x="50" y="479.5" width="256" height="150" rx="14" fill="#ffffff" stroke="#d5d5d0" stroke-width="1.3"/>
      <text x="70" y="507.5" font-size="10" letter-spacing="1" fill="#9A91C4">COMPONENT</text>
      <text x="70" y="528.5" font-size="17" font-weight="600" fill="#292927"><tspan x="70" dy="0">Agent Coordination</tspan><tspan x="70" dy="22">Driver</tspan></text>
      <text x="70" y="577.5" font-size="12" font-weight="400" fill="#6d6d68"><tspan x="70" dy="0">Discovers, starts, prompts,</tspan><tspan x="70" dy="17">reads, and sends keys to agents</tspan><tspan x="70" dy="17">behind safety gates.</tspan></text>
      </g><g data-element="agents.adapters"><rect x="522.5" y="113" width="256" height="150" rx="14" fill="#ffffff" stroke="#d5d5d0" stroke-width="1.3"/>
      <text x="542.5" y="141" font-size="10" letter-spacing="1" fill="#9A91C4">ADAPTER</text>
      <text x="542.5" y="162" font-size="17" font-weight="600" fill="#292927"><tspan x="542.5" dy="0">History &amp; Session</tspan><tspan x="542.5" dy="22">Adapters</tspan></text>
      <text x="542.5" y="211" font-size="12" font-weight="400" fill="#6d6d68"><tspan x="542.5" dy="0">Parses chat transcripts and</tspan><tspan x="542.5" dy="17">session logs from Claude, Codex,</tspan><tspan x="542.5" dy="17">Cursor, Pi, and Warp.</tspan></text>
      </g><g><rect x="363.745" y="560.5" width="101.01000000000002" height="38" rx="5" fill="#f8f8f6"/><text x="414.25" y="573.5" text-anchor="middle" font-size="11" fill="#62625e"><tspan x="414.25" dy="0">Verifies agent</tspan><tspan x="414.25" dy="15">availability</tspan></text></g><g><rect x="355" y="373" width="118.5" height="38" rx="5" fill="#f8f8f6"/><text x="414.25" y="386" text-anchor="middle" font-size="11" fill="#62625e"><tspan x="414.25" dy="0">Reads agent argv</tspan><tspan x="414.25" dy="15">definitions</tspan></text></g><g><rect x="367.375" y="194" width="93.75" height="53" rx="5" fill="#f8f8f6"/><text x="414.25" y="207" text-anchor="middle" font-size="11" fill="#62625e"><tspan x="414.25" dy="0">Extracts</tspan><tspan x="414.25" dy="15">conversation</tspan><tspan x="414.25" dy="15">turns</tspan></text></g></g>
  <g data-export-layer="legend"></g><path d="M96 1010H1824" stroke="#ddddda"/><text x="96" y="1044" font-size="13" fill="#7d7d77">STRUCTURE · CURRENT SYSTEM</text><text x="1824" y="1044" text-anchor="end" font-size="13" fill="#7d7d77">FOCUS: Agent Integration &amp; Control · 5 external connections outside view</text></g></svg>
