<svg xmlns="http://www.w3.org/2000/svg" width="1920" height="1080" viewBox="0 0 1920 1080" role="img" aria-labelledby="title description" data-theme="grove" data-theme-appearance="light">
  <title id="title">Sidecar / From a Web Page to a tmux Pane</title><desc id="description">The client chain today: the reference app, embedding apps, scripts and the phone each reach the same terminal protocol services, over the UI API or over SSH (U0, on main).. Architecture structure.</desc>
  <defs><marker id="arrow" viewBox="0 0 10 10" refX="9" refY="5" markerWidth="5" markerHeight="5" orient="auto-start-reverse"><path d="M 0 0 L 10 5 L 0 10 z" fill="#84948b"/></marker></defs>
  <rect width="1920" height="1080" fill="#fafbf8"/>
  <g font-family="Arial, Helvetica, sans-serif"><text x="96" y="58" font-size="12" letter-spacing="3" fill="#607c69">FRACTAL / SYSTEM MODEL</text>
  <g data-export-layer="title"><text x="96" y="116" font-size="48" font-weight="600" fill="#243b34"><tspan x="96" dy="0">Sidecar / From a Web Page to a tmux Pane</tspan></text></g>
  <g data-export-layer="subtitle"><text x="96" y="170" font-size="19" font-weight="400" fill="#6e7d72"><tspan x="96" dy="0">The client chain today: the reference app, embedding apps, scripts and the phone each reach the same terminal protocol services, over the UI API or over SSH (U0, on main).</tspan></text></g>
  <g data-export-layer="diagram" transform="translate(96 371.083) scale(0.416)"><g data-element="external"><rect x="3800.1799999999994" y="24" width="289.9999999999999" height="522" rx="14" fill="#f4f6f3" stroke="#d9e0da" stroke-width="1.3"/>
      <g transform="translate(4064.18 41) scale(0.667)" color="#B59669" opacity="0.85"><title>Subsystem</title><g fill="none" stroke="currentColor" stroke-width="1.5" stroke-linecap="round" stroke-linejoin="round"><rect x="3" y="8" width="13" height="13" rx="2"/><path d="M8 5V3h13v13h-2"/></g></g>
      <text x="3824.18" y="54" font-size="14" font-weight="600" fill="#243b34"><tspan x="3824.18" dy="0">External Systems &amp; Runtimes</tspan></text>
      <text x="3820.18" y="78" font-size="12" font-weight="400" fill="#67746e"></text>
      </g><g data-element="termproto"><rect x="2392.6899999999996" y="327.5" width="737.5799999999999" height="387.5" rx="14" fill="#f4f6f3" stroke="#d9e0da" stroke-width="1.3"/>
      <g transform="translate(3104.27 344.5) scale(0.667)" color="#C9A06B" opacity="0.85"><title>Subsystem</title><g fill="none" stroke="currentColor" stroke-width="1.5" stroke-linecap="round" stroke-linejoin="round"><rect x="3" y="8" width="13" height="13" rx="2"/><path d="M8 5V3h13v13h-2"/></g></g>
      <text x="2416.69" y="357.5" font-size="14" font-weight="600" fill="#243b34"><tspan x="2416.69" dy="0">Headless Terminal Protocol</tspan></text>
      <text x="2412.69" y="381.5" font-size="12" font-weight="400" fill="#67746e"></text>
      </g><g data-element="uiclients"><rect x="49" y="119.5" width="1242.6399999999999" height="365" rx="14" fill="#f4f6f3" stroke="#d9e0da" stroke-width="1.3"/>
      <g transform="translate(1265.64 136.5) scale(0.667)" color="#6FA6A0" opacity="0.85"><title>Subsystem</title><g fill="none" stroke="currentColor" stroke-width="1.5" stroke-linecap="round" stroke-linejoin="round"><rect x="3" y="8" width="13" height="13" rx="2"/><path d="M8 5V3h13v13h-2"/></g></g>
      <text x="73" y="149.5" font-size="14" font-weight="600" fill="#243b34"><tspan x="73" dy="0">UI API Clients</tspan></text>
      <text x="69" y="173.5" font-size="12" font-weight="400" fill="#67746e"></text>
      </g><path d="M3569.09,600 L3759.18,600 L3759.18,459.5 L3824.18,459.5" fill="none" stroke="#84948b" stroke-width="1.5" marker-end="url(#arrow)"/><path d="M4066.18,165 L4125.18,165 L4125.18,974.5 L1484.46,974.5 L1484.46,885.5 L1516.46,885.5" fill="none" stroke="#84948b" stroke-width="1.5" marker-end="url(#arrow)"/><path d="M1730.46,885.5 L1746.46,885.5 L1746.46,902.5 L1884.69,902.5 L1884.69,554 L1916.69,554" fill="none" stroke="#84948b" stroke-width="1.5" marker-end="url(#arrow)"/><path d="M2174.69,554 L2190.69,554 L2190.69,103.5 L24,103.5 L24,249 L89.96,249" fill="none" stroke="#84948b" stroke-width="1.5" marker-end="url(#arrow)"/><path d="M2174.69,554 L2190.69,554 L2190.69,439 L2351.69,439 L2351.69,422 L2870.27,422 L2870.27,458 L2892.27,458" fill="none" stroke="#84948b" stroke-width="1.5" marker-end="url(#arrow)"/><path d="M2174.69,554 L2190.69,554 L2190.69,631 L2351.69,631 L2351.69,600 L2416.69,600" fill="none" stroke="#84948b" stroke-width="1.5" marker-end="url(#arrow)"/><path d="M2174.69,554 L2361.69,554 L2361.69,441 L2860.27,441 L2860.27,600 L2892.27,600" fill="none" stroke="#84948b" stroke-width="1.5" marker-end="url(#arrow)"/><path d="M1730.46,885.5 L1894.69,885.5 L1894.69,904.5 L2361.69,904.5 L2361.69,441 L2860.27,441 L2860.27,600 L2892.27,600" fill="none" stroke="#84948b" stroke-width="1.5" marker-end="url(#arrow)"/><path d="M1730.46,885.5 L2351.69,885.5 L2351.69,600 L2416.69,600" fill="none" stroke="#84948b" stroke-width="1.5" marker-end="url(#arrow)"/><path d="M1730.46,885.5 L1894.69,885.5 L1894.69,422 L2870.27,422 L2870.27,458 L2892.27,458" fill="none" stroke="#84948b" stroke-width="1.5" marker-end="url(#arrow)"/><path d="M2674.69,600 L2690.69,600 L2690.69,458 L2892.27,458" fill="none" stroke="#84948b" stroke-width="1.5" marker-end="url(#arrow)"/><path d="M2674.69,600 L2892.27,600" fill="none" stroke="#84948b" stroke-width="1.5" marker-end="url(#arrow)"/><path d="M2674.69,600 L2690.69,600 L2690.69,690 L3155.27,690 L3155.27,761 L3344.31,761" fill="none" stroke="#84948b" stroke-width="1.5" marker-end="url(#arrow)"/><path d="M3106.27,600 L3355.09,600" fill="none" stroke="#84948b" stroke-width="1.5" marker-end="url(#arrow)"/><path d="M3106.27,458 L3155.27,458 L3155.27,459.5 L3824.18,459.5" fill="none" stroke="#84948b" stroke-width="1.5" marker-end="url(#arrow)"/><path d="M314.04,249 L545.61,249" fill="none" stroke="#84948b" stroke-width="1.5" marker-end="url(#arrow)"/><path d="M331,393 L513.61,393 L513.61,249 L545.61,249" fill="none" stroke="#84948b" stroke-width="1.5" marker-end="url(#arrow)"/><path d="M803.61,249 L1009.64,249" fill="none" stroke="#84948b" stroke-width="1.5" marker-end="url(#arrow)"/><path d="M1267.64,249 L1884.69,249 L1884.69,554 L1916.69,554" fill="none" stroke="#84948b" stroke-width="1.5" marker-end="url(#arrow)"/><path d="M1267.64,249 L1484.46,249 L1484.46,309 L3824.18,309" fill="none" stroke="#84948b" stroke-width="1.5" marker-end="url(#arrow)"/><path d="M4066.18,309 L4115.18,309 L4115.18,841.5 L1884.69,841.5 L1884.69,554 L1916.69,554" fill="none" stroke="#84948b" stroke-width="1.5" marker-end="url(#arrow)"/><path d="M803.61,399.5 L977.64,399.5 L977.64,249 L1009.64,249" fill="none" stroke="#84948b" stroke-width="1.5" marker-end="url(#arrow)"/><path d="M803.61,399.5 L819.61,399.5 L819.61,459.5 L1316.64,459.5 L1316.64,993.5 L1884.69,993.5 L1884.69,554 L1916.69,554" fill="none" stroke="#84948b" stroke-width="1.5" marker-end="url(#arrow)"/><path d="M803.61,399.5 L819.61,399.5 L819.61,459.5 L1316.64,459.5 L1316.64,885.5 L1516.46,885.5" fill="none" stroke="#84948b" stroke-width="1.5" marker-end="url(#arrow)"/><g data-element="terminal"><rect x="3356.0899999999992" y="535.5" width="212" height="129" rx="14" fill="#ffffff" stroke="#d9e0da" stroke-width="1.3"/>
      <g transform="translate(3542.09 552.5) scale(0.667)" color="#B59669" opacity="0.85"><title>Subsystem</title><g fill="none" stroke="currentColor" stroke-width="1.5" stroke-linecap="round" stroke-linejoin="round"><rect x="3" y="8" width="13" height="13" rx="2"/><path d="M8 5V3h13v13h-2"/></g></g>
      <text x="3376.09" y="567.5" font-size="14" font-weight="600" fill="#243b34"><tspan x="3376.09" dy="0">Terminal Fidelity</tspan><tspan x="3376.09" dy="20">Engine</tspan></text>
      <text x="3376.09" y="612.5" font-size="12" font-weight="400" fill="#67746e"><tspan x="3376.09" dy="0">High-fidelity terminal row</tspan><tspan x="3376.09" dy="17">capture, tmux control mode,</tspan><tspan x="3376.09" dy="17">and native PTY routing.</tspan></text>
      </g><g data-element="cli"><rect x="1517.4599999999998" y="812.5" width="212" height="146" rx="14" fill="#ffffff" stroke="#d9e0da" stroke-width="1.3"/>
      <g transform="translate(1703.46 829.5) scale(0.667)" color="#82A6B6" opacity="0.85"><title>Subsystem</title><g fill="none" stroke="currentColor" stroke-width="1.5" stroke-linecap="round" stroke-linejoin="round"><rect x="3" y="8" width="13" height="13" rx="2"/><path d="M8 5V3h13v13h-2"/></g></g>
      <text x="1537.46" y="844.5" font-size="14" font-weight="600" fill="#243b34"><tspan x="1537.46" dy="0">Non-Interactive</tspan><tspan x="1537.46" dy="20">CLI</tspan></text>
      <text x="1537.46" y="889.5" font-size="12" font-weight="400" fill="#67746e"><tspan x="1537.46" dy="0">Command-line entry points</tspan><tspan x="1537.46" dy="17">for programmatic layout,</tspan><tspan x="1537.46" dy="17">agent control, opening</tspan><tspan x="1537.46" dy="17">panes, and scripting.</tspan></text>
      </g><g data-element="remoting"><rect x="3345.3099999999995" y="696.5" width="233.55999999999995" height="129" rx="14" fill="#ffffff" stroke="#d9e0da" stroke-width="1.3"/>
      <g transform="translate(3552.87 713.5) scale(0.667)" color="#C48282" opacity="0.85"><title>Subsystem</title><g fill="none" stroke="currentColor" stroke-width="1.5" stroke-linecap="round" stroke-linejoin="round"><rect x="3" y="8" width="13" height="13" rx="2"/><path d="M8 5V3h13v13h-2"/></g></g>
      <text x="3365.31" y="728.5" font-size="14" font-weight="600" fill="#243b34"><tspan x="3365.31" dy="0">Remote Host</tspan><tspan x="3365.31" dy="20">Orchestration</tspan></text>
      <text x="3365.31" y="773.5" font-size="12" font-weight="400" fill="#67746e"><tspan x="3365.31" dy="0">Orchestrates remote Sidecar</tspan><tspan x="3365.31" dy="17">instances and transparently</tspan><tspan x="3365.31" dy="17">executes commands over SSH.</tspan></text>
      </g><g data-element="external.tmux"><rect x="3825.1799999999994" y="397" width="212" height="125" rx="14" fill="#ffffff" stroke="#d9e0da" stroke-width="1.3"/>
      <g transform="translate(4011.18 414) scale(0.667)" color="#B59669" opacity="0.85"><title>Service</title><g fill="none" stroke="currentColor" stroke-width="1.5" stroke-linecap="round" stroke-linejoin="round"><rect x="3" y="4" width="18" height="16" rx="2"/><path d="M3 12h18M7 8h2m-2 8h2"/></g></g>
      <text x="3845.18" y="429" font-size="14" font-weight="600" fill="#243b34"><tspan x="3845.18" dy="0">tmux Server</tspan></text>
      <text x="3845.18" y="453" font-size="12" font-weight="400" fill="#67746e"><tspan x="3845.18" dy="0">Dedicated multiplexer</tspan><tspan x="3845.18" dy="17">server holding PTY sessions,</tspan><tspan x="3845.18" dy="17">windows, and output ring</tspan><tspan x="3845.18" dy="17">buffers.</tspan></text>
      </g><g data-element="external.mobile"><rect x="3853.1799999999994" y="109" width="212" height="112" rx="14" fill="#ffffff" stroke="#d9e0da" stroke-width="1.3"/>
      <g transform="translate(4039.18 126) scale(0.667)" color="#C48282" opacity="0.85"><title>Service</title><g fill="none" stroke="currentColor" stroke-width="1.5" stroke-linecap="round" stroke-linejoin="round"><rect x="3" y="4" width="18" height="16" rx="2"/><path d="M3 12h18M7 8h2m-2 8h2"/></g></g>
      <text x="3873.18" y="141" font-size="14" font-weight="600" fill="#243b34"><tspan x="3873.18" dy="0">Mobile Companion</tspan><tspan x="3873.18" dy="20">Client</tspan></text>
      <text x="3873.18" y="186" font-size="12" font-weight="400" fill="#67746e"><tspan x="3873.18" dy="0">Native iPhone and iPad</tspan><tspan x="3873.18" dy="17">Sessions app over SSH stdio</tspan></text>
      </g><g data-element="external.tailscale"><rect x="3825.1799999999994" y="253" width="239.99999999999991" height="112" rx="14" fill="#ffffff" stroke="#d9e0da" stroke-width="1.3"/>
      <g transform="translate(4039.18 270) scale(0.667)" color="#B59669" opacity="0.85"><title>Service</title><g fill="none" stroke="currentColor" stroke-width="1.5" stroke-linecap="round" stroke-linejoin="round"><rect x="3" y="4" width="18" height="16" rx="2"/><path d="M3 12h18M7 8h2m-2 8h2"/></g></g>
      <text x="3845.18" y="285" font-size="14" font-weight="600" fill="#243b34"><tspan x="3845.18" dy="0">tailscale serve</tspan><tspan x="3845.18" dy="20">(tailscaled)</tspan></text>
      <text x="3845.18" y="330" font-size="12" font-weight="400" fill="#67746e"><tspan x="3845.18" dy="0">Tailnet HTTPS proxy that adds</tspan><tspan x="3845.18" dy="17">the verified login</tspan></text>
      </g><g data-element="api"><rect x="1917.6899999999998" y="498" width="256" height="112" rx="14" fill="#ffffff" stroke="#d9e0da" stroke-width="1.3"/>
      <g transform="translate(2147.69 515) scale(0.667)" color="#7F9FC4" opacity="0.85"><title>Subsystem</title><g fill="none" stroke="currentColor" stroke-width="1.5" stroke-linecap="round" stroke-linejoin="round"><rect x="3" y="8" width="13" height="13" rx="2"/><path d="M8 5V3h13v13h-2"/></g></g>
      <text x="1937.69" y="530" font-size="14" font-weight="600" fill="#243b34"><tspan x="1937.69" dy="0">UI API Host (sidecar api</tspan><tspan x="1937.69" dy="20">serve)</tspan></text>
      <text x="1937.69" y="575" font-size="12" font-weight="400" fill="#67746e"><tspan x="1937.69" dy="0">Headless HTTP and WebSocket API</tspan><tspan x="1937.69" dy="17">for UIs that are not the TUI</tspan></text>
      </g><g data-element="termproto.service"><rect x="2893.2699999999995" y="535.5" width="212" height="129" rx="14" fill="#ffffff" stroke="#d9e0da" stroke-width="1.3"/>
      <g transform="translate(3079.27 552.5) scale(0.667)" color="#C9A06B" opacity="0.85"><title>Service</title><g fill="none" stroke="currentColor" stroke-width="1.5" stroke-linecap="round" stroke-linejoin="round"><rect x="3" y="4" width="18" height="16" rx="2"/><path d="M3 12h18M7 8h2m-2 8h2"/></g></g>
      <text x="2913.27" y="567.5" font-size="14" font-weight="600" fill="#243b34"><tspan x="2913.27" dy="0">Owner Terminal</tspan><tspan x="2913.27" dy="20">Service</tspan></text>
      <text x="2913.27" y="612.5" font-size="12" font-weight="400" fill="#67746e"><tspan x="2913.27" dy="0">One bounded protocol</tspan><tspan x="2913.27" dy="17">stream for a terminal this</tspan><tspan x="2913.27" dy="17">machine owns</tspan></text>
      </g><g data-element="termproto.catalog"><rect x="2893.2699999999995" y="412.5" width="212" height="91" rx="14" fill="#ffffff" stroke="#d9e0da" stroke-width="1.3"/>
      <g transform="translate(3079.27 429.5) scale(0.667)" color="#C9A06B" opacity="0.85"><title>Component</title><g fill="none" stroke="currentColor" stroke-width="1.5" stroke-linecap="round" stroke-linejoin="round"><path d="M7 7V4h13v16H7v-3m0-6v2"/><rect x="3" y="7" width="8" height="4" rx="1"/><rect x="3" y="13" width="8" height="4" rx="1"/></g></g>
      <text x="2913.27" y="444.5" font-size="14" font-weight="600" fill="#243b34"><tspan x="2913.27" dy="0">Sessions Catalog</tspan></text>
      <text x="2913.27" y="468.5" font-size="12" font-weight="400" fill="#67746e"><tspan x="2913.27" dy="0">Sorted, filtered rows of</tspan><tspan x="2913.27" dy="17">shells and agents</tspan></text>
      </g><g data-element="termproto.hub"><rect x="2417.6899999999996" y="544" width="256" height="112" rx="14" fill="#ffffff" stroke="#d9e0da" stroke-width="1.3"/>
      <g transform="translate(2647.69 561) scale(0.667)" color="#C9A06B" opacity="0.85"><title>Component</title><g fill="none" stroke="currentColor" stroke-width="1.5" stroke-linecap="round" stroke-linejoin="round"><path d="M7 7V4h13v16H7v-3m0-6v2"/><rect x="3" y="7" width="8" height="4" rx="1"/><rect x="3" y="13" width="8" height="4" rx="1"/></g></g>
      <text x="2437.69" y="576" font-size="14" font-weight="600" fill="#243b34"><tspan x="2437.69" dy="0">Protocol Broker &amp; Owner</tspan><tspan x="2437.69" dy="20">Router</tspan></text>
      <text x="2437.69" y="621" font-size="12" font-weight="400" fill="#67746e"><tspan x="2437.69" dy="0">Routes each stream to the Sidecar</tspan><tspan x="2437.69" dy="17">that owns the terminal</tspan></text>
      </g><g data-element="uiclients.app"><rect x="90.96000000000002" y="193" width="222.07999999999996" height="112" rx="14" fill="#ffffff" stroke="#d9e0da" stroke-width="1.3"/>
      <g transform="translate(287.04 210) scale(0.667)" color="#6FA6A0" opacity="0.85"><title>Component</title><g fill="none" stroke="currentColor" stroke-width="1.5" stroke-linecap="round" stroke-linejoin="round"><path d="M7 7V4h13v16H7v-3m0-6v2"/><rect x="3" y="7" width="8" height="4" rx="1"/><rect x="3" y="13" width="8" height="4" rx="1"/></g></g>
      <text x="110.96" y="225" font-size="14" font-weight="600" fill="#243b34"><tspan x="110.96" dy="0">sidecar-ui</tspan><tspan x="110.96" dy="20">Reference App</tspan></text>
      <text x="110.96" y="270" font-size="12" font-weight="400" fill="#67746e"><tspan x="110.96" dy="0">Generic SvelteKit reference</tspan><tspan x="110.96" dy="17">UI, a starting point to fork</tspan></text>
      </g><g data-element="uiclients.elements"><rect x="546.6099999999999" y="184.5" width="256" height="129" rx="14" fill="#ffffff" stroke="#d9e0da" stroke-width="1.3"/>
      <g transform="translate(776.61 201.5) scale(0.667)" color="#6FA6A0" opacity="0.85"><title>Component</title><g fill="none" stroke="currentColor" stroke-width="1.5" stroke-linecap="round" stroke-linejoin="round"><path d="M7 7V4h13v16H7v-3m0-6v2"/><rect x="3" y="7" width="8" height="4" rx="1"/><rect x="3" y="13" width="8" height="4" rx="1"/></g></g>
      <text x="566.61" y="216.5" font-size="14" font-weight="600" fill="#243b34"><tspan x="566.61" dy="0">@marcusv/sidecar-</tspan><tspan x="566.61" dy="20">elements</tspan></text>
      <text x="566.61" y="261.5" font-size="12" font-weight="400" fill="#67746e"><tspan x="566.61" dy="0">Framework-agnostic web</tspan><tspan x="566.61" dy="17">components such as</tspan><tspan x="566.61" dy="17">&lt;sidecar-terminal&gt;</tspan></text>
      </g><g data-element="uiclients.sdk"><rect x="1010.6399999999999" y="193" width="256" height="112" rx="14" fill="#ffffff" stroke="#d9e0da" stroke-width="1.3"/>
      <g transform="translate(1240.64 210) scale(0.667)" color="#6FA6A0" opacity="0.85"><title>Component</title><g fill="none" stroke="currentColor" stroke-width="1.5" stroke-linecap="round" stroke-linejoin="round"><path d="M7 7V4h13v16H7v-3m0-6v2"/><rect x="3" y="7" width="8" height="4" rx="1"/><rect x="3" y="13" width="8" height="4" rx="1"/></g></g>
      <text x="1030.64" y="225" font-size="14" font-weight="600" fill="#243b34"><tspan x="1030.64" dy="0">@marcusv/sidecar-</tspan><tspan x="1030.64" dy="20">client</tspan></text>
      <text x="1030.64" y="270" font-size="12" font-weight="400" fill="#67746e"><tspan x="1030.64" dy="0">Typed SDK that owns the hard</tspan><tspan x="1030.64" dy="17">parts of the stream</tspan></text>
      </g><g data-element="uiclients.embedder"><rect x="74" y="337" width="256" height="112" rx="14" fill="#ffffff" stroke="#d9e0da" stroke-width="1.3"/>
      <g transform="translate(304 354) scale(0.667)" color="#6FA6A0" opacity="0.85"><title>Component</title><g fill="none" stroke="currentColor" stroke-width="1.5" stroke-linecap="round" stroke-linejoin="round"><path d="M7 7V4h13v16H7v-3m0-6v2"/><rect x="3" y="7" width="8" height="4" rx="1"/><rect x="3" y="13" width="8" height="4" rx="1"/></g></g>
      <text x="94" y="369" font-size="14" font-weight="600" fill="#243b34"><tspan x="94" dy="0">Embedding Apps (paired</tspan><tspan x="94" dy="20">origins)</tspan></text>
      <text x="94" y="414" font-size="12" font-weight="400" fill="#67746e"><tspan x="94" dy="0">Another origin embedding Sidecar</tspan><tspan x="94" dy="17">after api pair --origin</tspan></text>
      </g><g data-element="uiclients.scripts"><rect x="590.6099999999999" y="345.5" width="212" height="108" rx="14" fill="#ffffff" stroke="#d9e0da" stroke-width="1.3"/>
      <g transform="translate(776.61 362.5) scale(0.667)" color="#6FA6A0" opacity="0.85"><title>Actor</title><g fill="none" stroke="currentColor" stroke-width="1.5" stroke-linecap="round" stroke-linejoin="round"><circle cx="12" cy="7" r="4"/><path d="M4 21v-2a6 6 0 0 1 6-6h4a6 6 0 0 1 6 6v2"/></g></g>
      <text x="610.61" y="377.5" font-size="14" font-weight="600" fill="#243b34"><tspan x="610.61" dy="0">Agents &amp; Scripts</tspan></text>
      <text x="610.61" y="401.5" font-size="12" font-weight="400" fill="#67746e"><tspan x="610.61" dy="0">Node SDK, curl over the</tspan><tspan x="610.61" dy="17">Local socket, sidecar api</tspan><tspan x="610.61" dy="17">verbs</tspan></text>
      </g><g><rect x="3627.8699999999994" y="606" width="115.30999999999996" height="38" rx="5" fill="#fafbf8"/><text x="3685.5249999999996" y="619" text-anchor="middle" font-size="11" fill="#66766d"><tspan x="3685.5249999999996" dy="0">tmux control-mode</tspan><tspan x="3685.5249999999996" dy="15">protocol</tspan></text></g><g><rect x="2702.9449999999997" y="980.5" width="117.06999999999996" height="38" rx="5" fill="#fafbf8"/><text x="2761.4799999999996" y="993.5" text-anchor="middle" font-size="11" fill="#66766d"><tspan x="2761.4799999999996" dy="0">ssh: sidecar mobile</tspan><tspan x="2761.4799999999996" dy="15">serve --stdio</tspan></text></g><g><rect x="1778.4599999999998" y="908.5" width="90.22999999999999" height="23" rx="5" fill="#fafbf8"/><text x="1823.5749999999998" y="921.5" text-anchor="middle" font-size="11" fill="#66766d"><tspan x="1823.5749999999998" dy="0">5 connections</tspan></text></g><g><rect x="1571.58" y="63.5" width="103.75999999999998" height="38" rx="5" fill="#fafbf8"/><text x="1623.4599999999998" y="76.5" text-anchor="middle" font-size="11" fill="#66766d"><tspan x="1623.4599999999998" dy="0">Serves the --ui</tspan><tspan x="1623.4599999999998" dy="15">bundle and /pair</tspan></text></g><g><rect x="2224.7799999999997" y="445" width="108.81999999999996" height="53" rx="5" fill="#fafbf8"/><text x="2279.1899999999996" y="458" text-anchor="middle" font-size="11" fill="#66766d"><tspan x="2279.1899999999996" dy="0">GET</tspan><tspan x="2279.1899999999996" dy="15">/api/v0/sessions</tspan><tspan x="2279.1899999999996" dy="15">(local)</tspan></text></g><g><rect x="2234.0749999999994" y="637" width="90.22999999999999" height="23" rx="5" fill="#fafbf8"/><text x="2279.189999999999" y="650" text-anchor="middle" font-size="11" fill="#66766d"><tspan x="2279.189999999999" dy="0">2 connections</tspan></text></g><g><rect x="2222.6899999999996" y="560" width="112.99999999999996" height="53" rx="5" fill="#fafbf8"/><text x="2279.1899999999996" y="573" text-anchor="middle" font-size="11" fill="#66766d"><tspan x="2279.1899999999996" dy="0">One v0 stream per</tspan><tspan x="2279.1899999999996" dy="15">WebSocket,</tspan><tspan x="2279.1899999999996" dy="15">in-process</tspan></text></g><g><rect x="1994.195" y="910.5" width="102.98999999999997" height="38" rx="5" fill="#fafbf8"/><text x="2045.6899999999998" y="923.5" text-anchor="middle" font-size="11" fill="#66766d"><tspan x="2045.6899999999998" dy="0">Owner stream on</tspan><tspan x="2045.6899999999998" dy="15">stdio</tspan></text></g><g><rect x="1984.2949999999998" y="860.5" width="122.78999999999996" height="23" rx="5" fill="#fafbf8"/><text x="2045.6899999999998" y="873.5" text-anchor="middle" font-size="11" fill="#66766d"><tspan x="2045.6899999999998" dy="0">Hub stream on stdio</tspan></text></g><g><rect x="1997.0549999999998" y="428" width="97.26999999999997" height="38" rx="5" fill="#fafbf8"/><text x="2045.6899999999998" y="441" text-anchor="middle" font-size="11" fill="#66766d"><tspan x="2045.6899999999998" dy="0">mobile sessions</tspan><tspan x="2045.6899999999998" dy="15">--json</tspan></text></g><g><rect x="2725.3299999999995" y="464" width="116.29999999999998" height="38" rx="5" fill="#fafbf8"/><text x="2783.4799999999996" y="477" text-anchor="middle" font-size="11" fill="#66766d"><tspan x="2783.4799999999996" dy="0">Merges local rows</tspan><tspan x="2783.4799999999996" dy="15">into the directory</tspan></text></g><g><rect x="2722.6899999999996" y="606" width="121.57999999999996" height="68" rx="5" fill="#fafbf8"/><text x="2783.4799999999996" y="619" text-anchor="middle" font-size="11" fill="#66766d"><tspan x="2783.4799999999996" dy="0">Local owner</tspan><tspan x="2783.4799999999996" dy="15">in-process; remote</tspan><tspan x="2783.4799999999996" dy="15">owner via mobile</tspan><tspan x="2783.4799999999996" dy="15">serve --owner-only</tspan></text></g><g><rect x="3189.9099999999994" y="767" width="103.75999999999998" height="53" rx="5" fill="#fafbf8"/><text x="3241.7899999999995" y="780" text-anchor="middle" font-size="11" fill="#66766d"><tspan x="3241.7899999999995" dy="0">Validates route,</tspan><tspan x="3241.7899999999995" dy="15">builds SSH owner</tspan><tspan x="3241.7899999999995" dy="15">command</tspan></text></g><g><rect x="3187.2699999999995" y="606" width="109.03999999999998" height="53" rx="5" fill="#fafbf8"/><text x="3241.7899999999995" y="619" text-anchor="middle" font-size="11" fill="#66766d"><tspan x="3241.7899999999995" dy="0">Subscribes,</tspan><tspan x="3241.7899999999995" dy="15">captures frames,</tspan><tspan x="3241.7899999999995" dy="15">sends input</tspan></text></g><g><rect x="3402.5649999999996" y="465.5" width="119.04999999999995" height="38" rx="5" fill="#fafbf8"/><text x="3462.0899999999997" y="478.5" text-anchor="middle" font-size="11" fill="#66766d"><tspan x="3462.0899999999997" dy="0">Lists panes across</tspan><tspan x="3462.0899999999997" dy="15">project sessions</tspan></text></g><g><rect x="379" y="209" width="118.60999999999996" height="38" rx="5" fill="#fafbf8"/><text x="438.30499999999995" y="222" text-anchor="middle" font-size="11" fill="#66766d"><tspan x="438.30499999999995" dy="0">Composes</tspan><tspan x="438.30499999999995" dy="15">&lt;sidecar-terminal&gt;</tspan></text></g><g><rect x="379" y="399" width="118.60999999999996" height="38" rx="5" fill="#fafbf8"/><text x="438.30499999999995" y="412" text-anchor="middle" font-size="11" fill="#66766d"><tspan x="438.30499999999995" dy="0">Embeds</tspan><tspan x="438.30499999999995" dy="15">&lt;sidecar-terminal&gt;</tspan></text></g><g><rect x="851.6099999999999" y="255" width="110.02999999999997" height="38" rx="5" fill="#fafbf8"/><text x="906.6249999999999" y="268" text-anchor="middle" font-size="11" fill="#66766d"><tspan x="906.6249999999999" dy="0">Terminal over the</tspan><tspan x="906.6249999999999" dy="15">SDK</tspan></text></g><g><rect x="1562.1749999999997" y="255" width="122.56999999999995" height="38" rx="5" fill="#fafbf8"/><text x="1623.4599999999998" y="268" text-anchor="middle" font-size="11" fill="#66766d"><tspan x="1623.4599999999998" dy="0">Bearer HTTP, ticket</tspan><tspan x="1623.4599999999998" dy="15">WebSocket</tspan></text></g><g><rect x="2233.6899999999996" y="315" width="90.99999999999999" height="38" rx="5" fill="#fafbf8"/><text x="2279.1899999999996" y="328" text-anchor="middle" font-size="11" fill="#66766d"><tspan x="2279.1899999999996" dy="0">HTTPS from a</tspan><tspan x="2279.1899999999996" dy="15">tailnet device</tspan></text></g><g><rect x="3191.8899999999994" y="847.5" width="99.79999999999998" height="53" rx="5" fill="#fafbf8"/><text x="3241.7899999999995" y="860.5" text-anchor="middle" font-size="11" fill="#66766d"><tspan x="3241.7899999999995" dy="0">Proxies with</tspan><tspan x="3241.7899999999995" dy="15">Tailscale-User-</tspan><tspan x="3241.7899999999995" dy="15">Login</tspan></text></g><g><rect x="857.7699999999999" y="405.5" width="97.71" height="38" rx="5" fill="#fafbf8"/><text x="906.6249999999999" y="418.5" text-anchor="middle" font-size="11" fill="#66766d"><tspan x="906.6249999999999" dy="0">Node SDK with a</tspan><tspan x="906.6249999999999" dy="15">bearer token</tspan></text></g><g><rect x="1578.3449999999998" y="999.5" width="90.22999999999999" height="23" rx="5" fill="#fafbf8"/><text x="1623.4599999999998" y="1012.5" text-anchor="middle" font-size="11" fill="#66766d"><tspan x="1623.4599999999998" dy="0">2 connections</tspan></text></g><g><rect x="1348.6399999999999" y="891.5" width="119.81999999999998" height="38" rx="5" fill="#fafbf8"/><text x="1408.55" y="904.5" text-anchor="middle" font-size="11" fill="#66766d"><tspan x="1408.55" dy="0">sidecar api status,</tspan><tspan x="1408.55" dy="15">open, pair</tspan></text></g></g>
  <g data-export-layer="legend"></g><path d="M96 1010H1824" stroke="#dce2db"/><text x="96" y="1044" font-size="13" fill="#78867c">STRUCTURE · CURRENT SYSTEM</text><text x="1824" y="1044" text-anchor="end" font-size="13" fill="#78867c">14 external connections outside view</text></g></svg>
