<svg xmlns="http://www.w3.org/2000/svg" width="1920" height="1080" viewBox="0 0 1920 1080" role="img" aria-labelledby="title description" data-theme="grove" data-theme-appearance="light">
  <title id="title">Sidecar / Inside sidecar api serve</title><desc id="description">Three listeners, one route set: how the UI API host admits a caller and hands each terminal WebSocket to the shared terminal protocol, with generated schemas and deterministic fixture development.. Architecture structure.</desc>
  <defs><marker id="arrow" viewBox="0 0 10 10" refX="9" refY="5" markerWidth="5" markerHeight="5" orient="auto-start-reverse"><path d="M 0 0 L 10 5 L 0 10 z" fill="#84948b"/></marker></defs>
  <rect width="1920" height="1080" fill="#fafbf8"/>
  <g font-family="Arial, Helvetica, sans-serif"><text x="96" y="58" font-size="12" letter-spacing="3" fill="#607c69">FRACTAL / SYSTEM MODEL</text>
  <g data-export-layer="title"><text x="96" y="116" font-size="48" font-weight="600" fill="#243b34"><tspan x="96" dy="0">Sidecar / Inside sidecar api serve</tspan></text></g>
  <g data-export-layer="subtitle"><text x="96" y="170" font-size="19" font-weight="400" fill="#6e7d72"><tspan x="96" dy="0">Three listeners, one route set: how the UI API host admits a caller and hands each terminal WebSocket to the shared terminal protocol, with generated schemas and deterministic</tspan><tspan x="96" dy="26">fixture development.</tspan></text></g>
  <g data-export-layer="diagram" transform="translate(96 367.944) scale(0.616)"><g data-element="api"><rect x="392.07" y="24" width="2049.99" height="665" rx="14" fill="#f4f6f3" stroke="#d9e0da" stroke-width="1.3"/>
      <g transform="translate(2416.06 41) scale(0.667)" color="#7F9FC4" opacity="0.85"><title>Subsystem</title><g fill="none" stroke="currentColor" stroke-width="1.5" stroke-linecap="round" stroke-linejoin="round"><rect x="3" y="8" width="13" height="13" rx="2"/><path d="M8 5V3h13v13h-2"/></g></g>
      <text x="416.07" y="54" font-size="14" font-weight="600" fill="#243b34"><tspan x="416.07" dy="0">UI API Host (sidecar api serve)</tspan></text>
      <text x="412.07" y="78" font-size="12" font-weight="400" fill="#67746e"></text>
      </g><path d="M160.5,169.5 L196.5,169.5 L196.5,236 L361.07,236 L361.07,307 L391.07,307" fill="none" stroke="#84948b" stroke-width="1.5" marker-end="url(#arrow)"/><path d="M160.5,169.5 L351.07,169.5 L351.07,165 L416.07,165" fill="none" stroke="#84948b" stroke-width="1.5" marker-end="url(#arrow)"/><path d="M160.5,169.5 L196.5,169.5 L196.5,449.5 L351.07,449.5 L351.07,398 L892.64,398" fill="none" stroke="#84948b" stroke-width="1.5" marker-end="url(#arrow)"/><path d="M1106.64,398 L1324.22,398" fill="none" stroke="#84948b" stroke-width="1.5" marker-end="url(#arrow)"/><path d="M652.07,469 L860.64,469 L860.64,600.5 L892.64,600.5" fill="none" stroke="#84948b" stroke-width="1.5" marker-end="url(#arrow)"/><path d="M652.07,600.5 L892.64,600.5" fill="none" stroke="#84948b" stroke-width="1.5" marker-end="url(#arrow)"/><path d="M1106.64,600.5 L1122.64,600.5 L1122.64,540.5 L1292.22,540.5 L1292.22,398 L1324.22,398" fill="none" stroke="#84948b" stroke-width="1.5" marker-end="url(#arrow)"/><path d="M1106.64,600.5 L1740.51,600.5" fill="none" stroke="#84948b" stroke-width="1.5" marker-end="url(#arrow)"/><path d="M1538.22,398 L1708.51,398 L1708.51,600.5 L1740.51,600.5" fill="none" stroke="#84948b" stroke-width="1.5" marker-end="url(#arrow)"/><path d="M1974.81,600.5 L2168.08,600.5" fill="none" stroke="#84948b" stroke-width="1.5" marker-end="url(#arrow)"/><path d="M1538.22,398 L1554.22,398 L1554.22,300.5 L1740.79,300.5" fill="none" stroke="#84948b" stroke-width="1.5" marker-end="url(#arrow)"/><path d="M1538.22,398 L1554.22,398 L1554.22,381 L2467.06,381 L2467.06,715.5 L24,715.5 L24,302.5 L73.3,302.5" fill="none" stroke="#84948b" stroke-width="1.5" marker-end="url(#arrow)"/><path d="M1538.22,398 L1554.22,398 L1554.22,381 L2672.38,381" fill="none" stroke="#84948b" stroke-width="1.5" marker-end="url(#arrow)"/><path d="M1538.22,398 L1554.22,398 L1554.22,381 L2467.06,381 L2467.06,455 L2640.38,455 L2640.38,381 L2672.38,381" fill="none" stroke="#84948b" stroke-width="1.5" marker-end="url(#arrow)"/><path d="M1974.53,300.5 L2477.06,300.5 L2477.06,529 L2640.38,529 L2640.38,381 L2672.38,381" fill="none" stroke="#84948b" stroke-width="1.5" marker-end="url(#arrow)"/><path d="M1974.53,300.5 L2640.38,300.5 L2640.38,381 L2672.38,381" fill="none" stroke="#84948b" stroke-width="1.5" marker-end="url(#arrow)"/><path d="M160.5,302.5 L186.5,302.5 L186.5,582.5 L351.07,582.5 L351.07,469 L438.07,469" fill="none" stroke="#84948b" stroke-width="1.5" marker-end="url(#arrow)"/><path d="M160.5,516 L176.5,516 L176.5,649 L351.07,649 L351.07,600.5 L438.07,600.5" fill="none" stroke="#84948b" stroke-width="1.5" marker-end="url(#arrow)"/><path d="M160.5,302.5 L186.5,302.5 L186.5,398 L892.64,398" fill="none" stroke="#84948b" stroke-width="1.5" marker-end="url(#arrow)"/><path d="M160.5,516 L351.07,516 L351.07,469 L438.07,469" fill="none" stroke="#84948b" stroke-width="1.5" marker-end="url(#arrow)"/><path d="M160.5,169.5 L196.5,169.5 L196.5,354 L351.07,354 L351.07,317.5 L416.07,317.5" fill="none" stroke="#84948b" stroke-width="1.5" marker-end="url(#arrow)"/><path d="M160.5,302.5 L351.07,302.5 L351.07,317.5 L416.07,317.5" fill="none" stroke="#84948b" stroke-width="1.5" marker-end="url(#arrow)"/><path d="M1106.64,258 L1292.22,258 L1292.22,398 L1324.22,398" fill="none" stroke="#84948b" stroke-width="1.5" marker-end="url(#arrow)"/><path d="M1106.64,258 L1122.64,258 L1122.64,241 L1708.51,241 L1708.51,300.5 L1740.79,300.5" fill="none" stroke="#84948b" stroke-width="1.5" marker-end="url(#arrow)"/><g data-element="api.local"><rect x="893.6399999999999" y="344" width="212" height="108" rx="14" fill="#ffffff" stroke="#d9e0da" stroke-width="1.3"/>
      <g transform="translate(1079.64 361) scale(0.667)" color="#7F9FC4" opacity="0.85"><title>Component</title><g fill="none" stroke="currentColor" stroke-width="1.5" stroke-linecap="round" stroke-linejoin="round"><path d="M7 7V4h13v16H7v-3m0-6v2"/><rect x="3" y="7" width="8" height="4" rx="1"/><rect x="3" y="13" width="8" height="4" rx="1"/></g></g>
      <text x="913.64" y="376" font-size="14" font-weight="600" fill="#243b34"><tspan x="913.64" dy="0">Local Listener</tspan></text>
      <text x="913.64" y="400" font-size="12" font-weight="400" fill="#67746e"><tspan x="913.64" dy="0">Trusted 0600 Unix socket;</tspan><tspan x="913.64" dy="17">pairing and origins only</tspan><tspan x="913.64" dy="17">here</tspan></text>
      </g><g data-element="api.browser"><rect x="439.07" y="415" width="212" height="108" rx="14" fill="#ffffff" stroke="#d9e0da" stroke-width="1.3"/>
      <g transform="translate(625.07 432) scale(0.667)" color="#7F9FC4" opacity="0.85"><title>Component</title><g fill="none" stroke="currentColor" stroke-width="1.5" stroke-linecap="round" stroke-linejoin="round"><path d="M7 7V4h13v16H7v-3m0-6v2"/><rect x="3" y="7" width="8" height="4" rx="1"/><rect x="3" y="13" width="8" height="4" rx="1"/></g></g>
      <text x="459.07" y="447" font-size="14" font-weight="600" fill="#243b34"><tspan x="459.07" dy="0">Browser Listener</tspan></text>
      <text x="459.07" y="471" font-size="12" font-weight="400" fill="#67746e"><tspan x="459.07" dy="0">Loopback TCP 127.0.0.1:7861</tspan><tspan x="459.07" dy="17">for browsers on this</tspan><tspan x="459.07" dy="17">machine</tspan></text>
      </g><g data-element="api.tailnet"><rect x="439.07" y="555" width="212" height="91" rx="14" fill="#ffffff" stroke="#d9e0da" stroke-width="1.3"/>
      <g transform="translate(625.07 572) scale(0.667)" color="#7F9FC4" opacity="0.85"><title>Component</title><g fill="none" stroke="currentColor" stroke-width="1.5" stroke-linecap="round" stroke-linejoin="round"><path d="M7 7V4h13v16H7v-3m0-6v2"/><rect x="3" y="7" width="8" height="4" rx="1"/><rect x="3" y="13" width="8" height="4" rx="1"/></g></g>
      <text x="459.07" y="587" font-size="14" font-weight="600" fill="#243b34"><tspan x="459.07" dy="0">Tailnet Listener</tspan></text>
      <text x="459.07" y="611" font-size="12" font-weight="400" fill="#67746e"><tspan x="459.07" dy="0">0600 Unix socket behind</tspan><tspan x="459.07" dy="17">tailscale serve</tspan></text>
      </g><g data-element="api.guards"><rect x="893.6399999999999" y="536" width="212" height="129" rx="14" fill="#ffffff" stroke="#d9e0da" stroke-width="1.3"/>
      <g transform="translate(1079.64 553) scale(0.667)" color="#7F9FC4" opacity="0.85"><title>Component</title><g fill="none" stroke="currentColor" stroke-width="1.5" stroke-linecap="round" stroke-linejoin="round"><path d="M7 7V4h13v16H7v-3m0-6v2"/><rect x="3" y="7" width="8" height="4" rx="1"/><rect x="3" y="13" width="8" height="4" rx="1"/></g></g>
      <text x="913.64" y="568" font-size="14" font-weight="600" fill="#243b34"><tspan x="913.64" dy="0">Request Guards &amp;</tspan><tspan x="913.64" dy="20">Auth</tspan></text>
      <text x="913.64" y="613" font-size="12" font-weight="400" fill="#67746e"><tspan x="913.64" dy="0">Host, Origin and mutation</tspan><tspan x="913.64" dy="17">guards, then bearer, ticket</tspan><tspan x="913.64" dy="17">or tailnet login</tspan></text>
      </g><g data-element="api.pairing"><rect x="1741.5099999999998" y="536" width="232.29999999999993" height="129" rx="14" fill="#ffffff" stroke="#d9e0da" stroke-width="1.3"/>
      <g transform="translate(1947.81 553) scale(0.667)" color="#7F9FC4" opacity="0.85"><title>Component</title><g fill="none" stroke="currentColor" stroke-width="1.5" stroke-linecap="round" stroke-linejoin="round"><path d="M7 7V4h13v16H7v-3m0-6v2"/><rect x="3" y="7" width="8" height="4" rx="1"/><rect x="3" y="13" width="8" height="4" rx="1"/></g></g>
      <text x="1761.51" y="568" font-size="14" font-weight="600" fill="#243b34"><tspan x="1761.51" dy="0">Pairing, Sessions &amp;</tspan><tspan x="1761.51" dy="20">Tickets</tspan></text>
      <text x="1761.51" y="613" font-size="12" font-weight="400" fill="#67746e"><tspan x="1761.51" dy="0">Pairing codes, origin-bound</tspan><tspan x="1761.51" dy="17">session tokens, WebSocket</tspan><tspan x="1761.51" dy="17">tickets</tspan></text>
      </g><g data-element="api.origins"><rect x="2169.08" y="544.5" width="247.97999999999993" height="112" rx="14" fill="#ffffff" stroke="#d9e0da" stroke-width="1.3"/>
      <g transform="translate(2391.06 561.5) scale(0.667)" color="#7F9FC4" opacity="0.85"><title>Store</title><g fill="none" stroke="currentColor" stroke-width="1.5" stroke-linecap="round" stroke-linejoin="round"><ellipse cx="12" cy="6" rx="8" ry="3"/><path d="M4 6v12c0 4 16 4 16 0V6M4 12c0 4 16 4 16 0"/></g></g>
      <text x="2189.08" y="576.5" font-size="14" font-weight="600" fill="#243b34"><tspan x="2189.08" dy="0">Paired Origins</tspan><tspan x="2189.08" dy="20">(origins.json)</tspan></text>
      <text x="2189.08" y="621.5" font-size="12" font-weight="400" fill="#67746e"><tspan x="2189.08" dy="0">Mode-0600 registry of paired</tspan><tspan x="2189.08" dy="17">origin token hashes</tspan></text>
      </g><g data-element="api.endpoint"><rect x="417.07" y="109" width="256" height="112" rx="14" fill="#ffffff" stroke="#d9e0da" stroke-width="1.3"/>
      <g transform="translate(647.07 126) scale(0.667)" color="#7F9FC4" opacity="0.85"><title>Store</title><g fill="none" stroke="currentColor" stroke-width="1.5" stroke-linecap="round" stroke-linejoin="round"><ellipse cx="12" cy="6" rx="8" ry="3"/><path d="M4 6v12c0 4 16 4 16 0V6M4 12c0 4 16 4 16 0"/></g></g>
      <text x="437.07" y="141" font-size="14" font-weight="600" fill="#243b34"><tspan x="437.07" dy="0">Endpoint Discovery</tspan><tspan x="437.07" dy="20">(endpoint.json)</tspan></text>
      <text x="437.07" y="186" font-size="12" font-weight="400" fill="#67746e"><tspan x="437.07" dy="0">endpoint.json plus serve.lock for</tspan><tspan x="437.07" dy="17">discovery and single instance</tspan></text>
      </g><g data-element="api.routes"><rect x="1325.2199999999998" y="333.5" width="212" height="129" rx="14" fill="#ffffff" stroke="#d9e0da" stroke-width="1.3"/>
      <g transform="translate(1511.22 350.5) scale(0.667)" color="#7F9FC4" opacity="0.85"><title>Component</title><g fill="none" stroke="currentColor" stroke-width="1.5" stroke-linecap="round" stroke-linejoin="round"><path d="M7 7V4h13v16H7v-3m0-6v2"/><rect x="3" y="7" width="8" height="4" rx="1"/><rect x="3" y="13" width="8" height="4" rx="1"/></g></g>
      <text x="1345.22" y="365.5" font-size="14" font-weight="600" fill="#243b34"><tspan x="1345.22" dy="0">Route Mux</tspan><tspan x="1345.22" dy="20">(/api/v0)</tspan></text>
      <text x="1345.22" y="410.5" font-size="12" font-weight="400" fill="#67746e"><tspan x="1345.22" dy="0">hello, sessions, status,</tspan><tspan x="1345.22" dy="17">tickets, pairing, origins,</tspan><tspan x="1345.22" dy="17">static UI</tspan></text>
      </g><g data-element="api.terminal"><rect x="1741.7899999999997" y="236" width="231.73999999999992" height="129" rx="14" fill="#ffffff" stroke="#d9e0da" stroke-width="1.3"/>
      <g transform="translate(1947.53 253) scale(0.667)" color="#7F9FC4" opacity="0.85"><title>Component</title><g fill="none" stroke="currentColor" stroke-width="1.5" stroke-linecap="round" stroke-linejoin="round"><path d="M7 7V4h13v16H7v-3m0-6v2"/><rect x="3" y="7" width="8" height="4" rx="1"/><rect x="3" y="13" width="8" height="4" rx="1"/></g></g>
      <text x="1761.79" y="268" font-size="14" font-weight="600" fill="#243b34"><tspan x="1761.79" dy="0">Terminal WebSocket</tspan><tspan x="1761.79" dy="20">Bridge</tspan></text>
      <text x="1761.79" y="313" font-size="12" font-weight="400" fill="#67746e"><tspan x="1761.79" dy="0">One WebSocket is one</tspan><tspan x="1761.79" dy="17">unchanged v0 terminal protocol</tspan><tspan x="1761.79" dy="17">stream</tspan></text>
      </g><g data-element="api.spec"><rect x="417.07" y="253" width="217.87999999999997" height="129" rx="14" fill="#ffffff" stroke="#d9e0da" stroke-width="1.3"/>
      <g transform="translate(608.95 270) scale(0.667)" color="#7F9FC4" opacity="0.85"><title>Component</title><g fill="none" stroke="currentColor" stroke-width="1.5" stroke-linecap="round" stroke-linejoin="round"><path d="M7 7V4h13v16H7v-3m0-6v2"/><rect x="3" y="7" width="8" height="4" rx="1"/><rect x="3" y="13" width="8" height="4" rx="1"/></g></g>
      <text x="437.07" y="285" font-size="14" font-weight="600" fill="#243b34"><tspan x="437.07" dy="0">Contract Spec &amp;</tspan><tspan x="437.07" dy="20">Schemas</tspan></text>
      <text x="437.07" y="330" font-size="12" font-weight="400" fill="#67746e"><tspan x="437.07" dy="0">sidecar api spec: generated</tspan><tspan x="437.07" dy="17">OpenAPI 3.1 and stream</tspan><tspan x="437.07" dy="17">schemas</tspan></text>
      </g><g data-element="api.fixtures"><rect x="893.6399999999999" y="204" width="212" height="108" rx="14" fill="#ffffff" stroke="#d9e0da" stroke-width="1.3"/>
      <g transform="translate(1079.64 221) scale(0.667)" color="#7F9FC4" opacity="0.85"><title>Adapter</title><g fill="none" stroke="currentColor" stroke-width="1.5" stroke-linecap="round" stroke-linejoin="round"><path d="M3 7h14l-3-3m3 3-3 3M21 17H7l3-3m-3 3 3 3"/></g></g>
      <text x="913.64" y="236" font-size="14" font-weight="600" fill="#243b34"><tspan x="913.64" dy="0">Fixture Backend</tspan></text>
      <text x="913.64" y="260" font-size="12" font-weight="400" fill="#67746e"><tspan x="913.64" dy="0">api serve --fixtures:</tspan><tspan x="913.64" dy="17">recorded resources and</tspan><tspan x="913.64" dy="17">deterministic echo</tspan></text>
      </g><g data-outside-port="cli" transform="translate(41 151.5)" role="group" aria-label="Outside scope: Non-Interactive CLI. 4 connections."><rect width="118.5" height="36" rx="7" fill="#ffffff" stroke="#78867c" stroke-width="1.2"/><text x="59.25" y="17" text-anchor="middle" font-size="10" font-weight="600" fill="#243b34">Non-Interactive CLI</text><text x="59.25" y="29" text-anchor="middle" font-size="8" fill="#67746e">outside scope</text></g><g data-outside-port="uiclients" transform="translate(74.3 284.5)" role="group" aria-label="Outside scope: UI API Clients. 4 connections."><rect width="85.2" height="36" rx="7" fill="#ffffff" stroke="#78867c" stroke-width="1.2"/><text x="42.6" y="17" text-anchor="middle" font-size="10" font-weight="600" fill="#243b34">UI API Clients</text><text x="42.6" y="29" text-anchor="middle" font-size="8" fill="#67746e">outside scope</text></g><g data-outside-port="termproto" transform="translate(2673.38 357.5)" role="group" aria-label="Outside scope: Headless Terminal Protocol. 4 connections."><rect width="107.1" height="47" rx="7" fill="#ffffff" stroke="#78867c" stroke-width="1.2"/><text x="53.55" y="17" text-anchor="middle" font-size="10" font-weight="600" fill="#243b34">Headless Terminal</text><text x="53.55" y="28" text-anchor="middle" font-size="10" font-weight="600" fill="#243b34">Protocol</text><text x="53.55" y="40" text-anchor="middle" font-size="8" fill="#67746e">outside scope</text></g><g data-outside-port="external" transform="translate(44 492.5)" role="group" aria-label="Outside scope: External Systems &amp; Runtimes. 2 connections."><rect width="115.5" height="47" rx="7" fill="#ffffff" stroke="#78867c" stroke-width="1.2"/><text x="57.75" y="17" text-anchor="middle" font-size="10" font-weight="600" fill="#243b34">External Systems &amp;</text><text x="57.75" y="28" text-anchor="middle" font-size="10" font-weight="600" fill="#243b34">Runtimes</text><text x="57.75" y="40" text-anchor="middle" font-size="8" fill="#67746e">outside scope</text></g><g><rect x="221.90500000000003" y="211" width="103.75999999999998" height="53" rx="5" fill="#fafbf8"/><text x="273.785" y="224" text-anchor="middle" font-size="11" fill="#66766d"><tspan x="273.785" dy="0">Runs sidecar api</tspan><tspan x="273.785" dy="15">serve in the</tspan><tspan x="273.785" dy="15">foreground</tspan></text></g><g><rect x="219.26500000000004" y="152" width="109.03999999999998" height="38" rx="5" fill="#fafbf8"/><text x="273.785" y="165" text-anchor="middle" font-size="11" fill="#66766d"><tspan x="273.785" dy="0">Discovers socket</tspan><tspan x="273.785" dy="15">and PID</tspan></text></g><g><rect x="225.14999999999998" y="432" width="97.26999999999998" height="38" rx="5" fill="#fafbf8"/><text x="273.78499999999997" y="445" text-anchor="middle" font-size="11" fill="#66766d"><tspan x="273.78499999999997" dy="0">Pairing codes,</tspan><tspan x="273.78499999999997" dy="15">origins, status</tspan></text></g><g><rect x="1156.3999999999999" y="404" width="118.05999999999997" height="38" rx="5" fill="#fafbf8"/><text x="1215.4299999999998" y="417" text-anchor="middle" font-size="11" fill="#66766d"><tspan x="1215.4299999999998" dy="0">Admits every</tspan><tspan x="1215.4299999999998" dy="15">request (trusted)</tspan></text></g><g><rect x="722.0699999999999" y="475" width="122.56999999999996" height="53" rx="5" fill="#fafbf8"/><text x="783.3549999999999" y="488" text-anchor="middle" font-size="11" fill="#66766d"><tspan x="783.3549999999999" dy="0">Host, Origin,</tspan><tspan x="783.3549999999999" dy="15">mutation; bearer or</tspan><tspan x="783.3549999999999" dy="15">ticket</tspan></text></g><g><rect x="729.825" y="606.5" width="107.05999999999997" height="53" rx="5" fill="#fafbf8"/><text x="783.355" y="619.5" text-anchor="middle" font-size="11" fill="#66766d"><tspan x="783.355" dy="0">Host, Origin,</tspan><tspan x="783.355" dy="15">mutation; tailnet</tspan><tspan x="783.355" dy="15">login</tspan></text></g><g><rect x="1154.6399999999999" y="546.5" width="121.57999999999997" height="38" rx="5" fill="#fafbf8"/><text x="1215.4299999999998" y="559.5" text-anchor="middle" font-size="11" fill="#66766d"><tspan x="1215.4299999999998" dy="0">Admits an</tspan><tspan x="1215.4299999999998" dy="15">authorized request</tspan></text></g><g><rect x="1371.695" y="606.5" width="119.04999999999997" height="38" rx="5" fill="#fafbf8"/><text x="1431.22" y="619.5" text-anchor="middle" font-size="11" fill="#66766d"><tspan x="1431.22" dy="0">Checks session</tspan><tspan x="1431.22" dy="15">tokens and tickets</tspan></text></g><g><rect x="1586.2199999999998" y="404" width="106.28999999999996" height="38" rx="5" fill="#fafbf8"/><text x="1639.3649999999998" y="417" text-anchor="middle" font-size="11" fill="#66766d"><tspan x="1639.3649999999998" dy="0">Codes, exchange,</tspan><tspan x="1639.3649999999998" dy="15">tickets, origins</tspan></text></g><g><rect x="2022.8099999999997" y="606.5" width="97.26999999999998" height="38" rx="5" fill="#fafbf8"/><text x="2071.4449999999997" y="619.5" text-anchor="middle" font-size="11" fill="#66766d"><tspan x="2071.4449999999997" dy="0">Persists origin</tspan><tspan x="2071.4449999999997" dy="15">token hashes</tspan></text></g><g><rect x="1586.3299999999997" y="306.5" width="106.06999999999996" height="38" rx="5" fill="#fafbf8"/><text x="1639.3649999999998" y="319.5" text-anchor="middle" font-size="11" fill="#66766d"><tspan x="1639.3649999999998" dy="0">Upgrades GET</tspan><tspan x="1639.3649999999998" dy="15">/api/v0/terminal</tspan></text></g><g><rect x="221.90500000000003" y="698" width="103.75999999999998" height="38" rx="5" fill="#fafbf8"/><text x="273.785" y="711" text-anchor="middle" font-size="11" fill="#66766d"><tspan x="273.785" dy="0">Serves the --ui</tspan><tspan x="273.785" dy="15">bundle and /pair</tspan></text></g><g><rect x="2507.31" y="356" width="108.81999999999996" height="53" rx="5" fill="#fafbf8"/><text x="2561.72" y="369" text-anchor="middle" font-size="11" fill="#66766d"><tspan x="2561.72" dy="0">GET</tspan><tspan x="2561.72" dy="15">/api/v0/sessions</tspan><tspan x="2561.72" dy="15">(local)</tspan></text></g><g><rect x="2499.06" y="430" width="125.31999999999996" height="53" rx="5" fill="#fafbf8"/><text x="2561.72" y="443" text-anchor="middle" font-size="11" fill="#66766d"><tspan x="2561.72" dy="0">Cross-host</tspan><tspan x="2561.72" dy="15">Sessions when hosts</tspan><tspan x="2561.72" dy="15">are configured</tspan></text></g><g><rect x="2505.22" y="504" width="112.99999999999996" height="53" rx="5" fill="#fafbf8"/><text x="2561.72" y="517" text-anchor="middle" font-size="11" fill="#66766d"><tspan x="2561.72" dy="0">One v0 stream per</tspan><tspan x="2561.72" dy="15">WebSocket,</tspan><tspan x="2561.72" dy="15">in-process</tspan></text></g><g><rect x="2508.96" y="275.5" width="105.51999999999998" height="53" rx="5" fill="#fafbf8"/><text x="2561.7200000000003" y="288.5" text-anchor="middle" font-size="11" fill="#66766d"><tspan x="2561.7200000000003" dy="0">Brokered stream</tspan><tspan x="2561.7200000000003" dy="15">when hosts are</tspan><tspan x="2561.7200000000003" dy="15">configured</tspan></text></g><g><rect x="212.50000000000006" y="565" width="122.56999999999995" height="38" rx="5" fill="#fafbf8"/><text x="273.785" y="578" text-anchor="middle" font-size="11" fill="#66766d"><tspan x="273.785" dy="0">Bearer HTTP, ticket</tspan><tspan x="273.785" dy="15">WebSocket</tspan></text></g><g><rect x="223.88500000000005" y="624" width="99.79999999999998" height="53" rx="5" fill="#fafbf8"/><text x="273.785" y="637" text-anchor="middle" font-size="11" fill="#66766d"><tspan x="273.785" dy="0">Proxies with</tspan><tspan x="273.785" dy="15">Tailscale-User-</tspan><tspan x="273.785" dy="15">Login</tspan></text></g><g><rect x="214.36999999999998" y="388" width="118.82999999999997" height="23" rx="5" fill="#fafbf8"/><text x="273.78499999999997" y="401" text-anchor="middle" font-size="11" fill="#66766d"><tspan x="273.78499999999997" dy="0">curl --unix-socket</tspan></text></g><g><rect x="221.02500000000003" y="491" width="105.51999999999997" height="53" rx="5" fill="#fafbf8"/><text x="273.785" y="504" text-anchor="middle" font-size="11" fill="#66766d"><tspan x="273.785" dy="0">Cross-site,</tspan><tspan x="273.785" dy="15">rebinding, other</tspan><tspan x="273.785" dy="15">users (refused)</tspan></text></g><g><rect x="221.90499999999997" y="344" width="103.75999999999999" height="23" rx="5" fill="#fafbf8"/><text x="273.78499999999997" y="357" text-anchor="middle" font-size="11" fill="#66766d"><tspan x="273.78499999999997" dy="0">sidecar api spec</tspan></text></g><g><rect x="223.66500000000002" y="285" width="100.23999999999998" height="38" rx="5" fill="#fafbf8"/><text x="273.785" y="298" text-anchor="middle" font-size="11" fill="#66766d"><tspan x="273.785" dy="0">Reads the whole</tspan><tspan x="273.785" dy="15">contract</tspan></text></g><g><rect x="1156.0149999999999" y="264" width="118.82999999999997" height="38" rx="5" fill="#fafbf8"/><text x="1215.4299999999998" y="277" text-anchor="middle" font-size="11" fill="#66766d"><tspan x="1215.4299999999998" dy="0">Recorded sessions,</tspan><tspan x="1215.4299999999998" dy="15">no tmux</tspan></text></g><g><rect x="1370.4299999999998" y="201" width="121.57999999999998" height="38" rx="5" fill="#fafbf8"/><text x="1431.2199999999998" y="214" text-anchor="middle" font-size="11" fill="#66766d"><tspan x="1431.2199999999998" dy="0">Real protocol,</tspan><tspan x="1431.2199999999998" dy="15">synthetic captures</tspan></text></g></g>
  <g data-export-layer="legend"></g><path d="M96 1010H1824" stroke="#dce2db"/><text x="96" y="1044" font-size="13" fill="#78867c">STRUCTURE · CURRENT SYSTEM</text><text x="1824" y="1044" text-anchor="end" font-size="13" fill="#78867c">FOCUS: UI API Host (sidecar api serve) · 14 external connections drawn as outside ports</text></g></svg>
