<svg xmlns="http://www.w3.org/2000/svg" width="1920" height="1080" viewBox="0 0 1920 1080" role="img" aria-labelledby="title description" data-theme="graphite" data-theme-appearance="light">
  <title id="title">Sidecar / Who the UI API Trusts</title><desc id="description">Four boundaries decide trust: your Unix socket, the loopback port every page can reach, the tailnet behind tailscaled, and SSH for the phone and remote owners.. Solid colored outlines mark exact authored boundary members; dotted outlines mark collapsed elements that contain members. Neither is an inferred trust envelope.</desc>
  <defs><marker id="arrow" viewBox="0 0 10 10" refX="9" refY="5" markerWidth="5" markerHeight="5" orient="auto-start-reverse"><path d="M 0 0 L 10 5 L 0 10 z" fill="#85857f"/></marker></defs>
  <rect width="1920" height="1080" fill="#f8f8f6"/>
  <g font-family="Arial, Helvetica, sans-serif"><text x="96" y="58" font-size="12" letter-spacing="3" fill="#626b6f">FRACTAL / SYSTEM MODEL</text>
  <g data-export-layer="title"><text x="96" y="116" font-size="48" font-weight="600" fill="#292927"><tspan x="96" dy="0">Sidecar / Who the UI API Trusts</tspan></text></g>
  <g data-export-layer="subtitle"><text x="96" y="170" font-size="19" font-weight="400" fill="#74746f"><tspan x="96" dy="0">Four boundaries decide trust: your Unix socket, the loopback port every page can reach, the tailnet behind tailscaled, and SSH for the phone and remote owners.</tspan></text></g>
  <g data-export-layer="diagram" transform="translate(96 400.244) scale(0.31)"><g data-element="cli"><rect x="2023.2099999999998" y="292.5" width="262" height="323" rx="14" fill="#eeeeeb" stroke="#d5d5d0" stroke-width="1.3"/>
      <g transform="translate(2259.21 309.5) scale(0.667)" color="#82A6B6" opacity="0.85"><title>Subsystem</title><g fill="none" stroke="currentColor" stroke-width="1.5" stroke-linecap="round" stroke-linejoin="round"><rect x="3" y="8" width="13" height="13" rx="2"/><path d="M8 5V3h13v13h-2"/></g></g>
      <text x="2047.21" y="322.5" font-size="14" font-weight="600" fill="#292927"><tspan x="2047.21" dy="0">Non-Interactive CLI</tspan></text>
      <text x="2043.21" y="346.5" font-size="12" font-weight="400" fill="#6d6d68"></text>
      </g><g data-element="external"><rect data-contains-members="true" x="1492.6399999999999" y="278" width="297.9999999999999" height="517" rx="16" fill="none" stroke="#B59669" stroke-width="2" stroke-dasharray="2 5" stroke-linecap="round"/><rect data-contains-members="true" x="1488.6399999999999" y="274" width="305.9999999999999" height="525" rx="20" fill="none" stroke="#9A91C4" stroke-width="2" stroke-dasharray="2 5" stroke-linecap="round"/><rect x="1496.6399999999999" y="282" width="289.9999999999999" height="509" rx="14" fill="#eeeeeb" stroke="#d5d5d0" stroke-width="1.3"/>
      <g transform="translate(1760.64 299) scale(0.667)" color="#B59669" opacity="0.85"><title>Subsystem</title><g fill="none" stroke="currentColor" stroke-width="1.5" stroke-linecap="round" stroke-linejoin="round"><rect x="3" y="8" width="13" height="13" rx="2"/><path d="M8 5V3h13v13h-2"/></g></g>
      <text x="1520.64" y="312" font-size="14" font-weight="600" fill="#292927"><tspan x="1520.64" dy="0">External Systems &amp; Runtimes</tspan></text>
      <text x="1516.64" y="336" font-size="12" font-weight="400" fill="#6d6d68"></text>
      </g><g data-element="api"><rect x="2508.25" y="473" width="2049.99" height="565.5" rx="14" fill="#eeeeeb" stroke="#d5d5d0" stroke-width="1.3"/>
      <g transform="translate(4532.24 490) scale(0.667)" color="#7F9FC4" opacity="0.85"><title>Subsystem</title><g fill="none" stroke="currentColor" stroke-width="1.5" stroke-linecap="round" stroke-linejoin="round"><rect x="3" y="8" width="13" height="13" rx="2"/><path d="M8 5V3h13v13h-2"/></g></g>
      <text x="2532.25" y="503" font-size="14" font-weight="600" fill="#292927"><tspan x="2532.25" dy="0">UI API Host (sidecar api serve)</tspan></text>
      <text x="2528.25" y="527" font-size="12" font-weight="400" fill="#6d6d68"></text>
      </g><g data-element="termproto"><rect x="4797.5599999999995" y="566.5" width="306" height="221" rx="14" fill="#eeeeeb" stroke="#d5d5d0" stroke-width="1.3"/>
      <g transform="translate(5077.56 583.5) scale(0.667)" color="#C9A06B" opacity="0.85"><title>Subsystem</title><g fill="none" stroke="currentColor" stroke-width="1.5" stroke-linecap="round" stroke-linejoin="round"><rect x="3" y="8" width="13" height="13" rx="2"/><path d="M8 5V3h13v13h-2"/></g></g>
      <text x="4821.56" y="596.5" font-size="14" font-weight="600" fill="#292927"><tspan x="4821.56" dy="0">Headless Terminal Protocol</tspan></text>
      <text x="4817.56" y="620.5" font-size="12" font-weight="400" fill="#6d6d68"></text>
      </g><g data-element="uiclients"><rect x="49" y="87" width="1242.6399999999999" height="358" rx="14" fill="#eeeeeb" stroke="#d5d5d0" stroke-width="1.3"/>
      <g transform="translate(1265.64 104) scale(0.667)" color="#6FA6A0" opacity="0.85"><title>Subsystem</title><g fill="none" stroke="currentColor" stroke-width="1.5" stroke-linecap="round" stroke-linejoin="round"><rect x="3" y="8" width="13" height="13" rx="2"/><path d="M8 5V3h13v13h-2"/></g></g>
      <text x="73" y="117" font-size="14" font-weight="600" fill="#292927"><tspan x="73" dy="0">UI API Clients</tspan></text>
      <text x="69" y="141" font-size="12" font-weight="400" fill="#6d6d68"></text>
      </g><path d="M1762.64,423 L2047.21,423" fill="none" stroke="#85857f" stroke-width="1.5" marker-end="url(#arrow)"/><path d="M2261.21,546 L2310.21,546 L2310.21,608 L2467.25,608 L2467.25,674.5 L2507.25,674.5" fill="none" stroke="#85857f" stroke-width="1.5" marker-end="url(#arrow)"/><path d="M2261.21,546 L2310.21,546 L2310.21,685 L2532.25,685" fill="none" stroke="#85857f" stroke-width="1.5" marker-end="url(#arrow)"/><path d="M2261.21,546 L2477.25,546 L2477.25,612 L3008.82,612" fill="none" stroke="#85857f" stroke-width="1.5" marker-end="url(#arrow)"/><path d="M3222.82,612 L3408.4,612 L3408.4,853.5 L3440.4,853.5" fill="none" stroke="#85857f" stroke-width="1.5" marker-end="url(#arrow)"/><path d="M2768.25,950 L3008.82,950" fill="none" stroke="#85857f" stroke-width="1.5" marker-end="url(#arrow)"/><path d="M2768.25,818.5 L2976.82,818.5 L2976.82,950 L3008.82,950" fill="none" stroke="#85857f" stroke-width="1.5" marker-end="url(#arrow)"/><path d="M3222.82,950 L3238.82,950 L3238.82,853.5 L3440.4,853.5" fill="none" stroke="#85857f" stroke-width="1.5" marker-end="url(#arrow)"/><path d="M3222.82,950 L3856.69,950" fill="none" stroke="#85857f" stroke-width="1.5" marker-end="url(#arrow)"/><path d="M3654.4,853.5 L3824.69,853.5 L3824.69,950 L3856.69,950" fill="none" stroke="#85857f" stroke-width="1.5" marker-end="url(#arrow)"/><path d="M4090.99,950 L4284.26,950" fill="none" stroke="#85857f" stroke-width="1.5" marker-end="url(#arrow)"/><path d="M3654.4,853.5 L3670.4,853.5 L3670.4,789 L3856.97,789" fill="none" stroke="#85857f" stroke-width="1.5" marker-end="url(#arrow)"/><path d="M3654.4,853.5 L3670.4,853.5 L3670.4,707.5 L4583.24,707.5 L4583.24,71 L24,71 L24,356.5 L89.96,356.5" fill="none" stroke="#85857f" stroke-width="1.5" marker-end="url(#arrow)"/><path d="M3654.4,853.5 L3670.4,853.5 L3670.4,707.5 L4821.56,707.5" fill="none" stroke="#85857f" stroke-width="1.5" marker-end="url(#arrow)"/><path d="M4090.71,789 L4756.56,789 L4756.56,707.5 L4821.56,707.5" fill="none" stroke="#85857f" stroke-width="1.5" marker-end="url(#arrow)"/><path d="M2261.21,423 L2310.21,423 L2310.21,52 L4756.56,52 L4756.56,707.5 L4821.56,707.5" fill="none" stroke="#85857f" stroke-width="1.5" marker-end="url(#arrow)"/><path d="M5079.56,707.5 L5312.32,707.5" fill="none" stroke="#85857f" stroke-width="1.5" marker-end="url(#arrow)"/><path d="M314.04,356.5 L545.61,356.5" fill="none" stroke="#85857f" stroke-width="1.5" marker-end="url(#arrow)"/><path d="M331,212.5 L513.61,212.5 L513.61,356.5 L545.61,356.5" fill="none" stroke="#85857f" stroke-width="1.5" marker-end="url(#arrow)"/><path d="M803.61,356.5 L1009.64,356.5" fill="none" stroke="#85857f" stroke-width="1.5" marker-end="url(#arrow)"/><path d="M1267.64,356.5 L1316.64,356.5 L1316.64,820 L2467.25,820 L2467.25,950 L2554.25,950" fill="none" stroke="#85857f" stroke-width="1.5" marker-end="url(#arrow)"/><path d="M1267.64,356.5 L1316.64,356.5 L1316.64,567 L1520.64,567" fill="none" stroke="#85857f" stroke-width="1.5" marker-end="url(#arrow)"/><path d="M1762.64,567 L1821.64,567 L1821.64,745 L2477.25,745 L2477.25,818.5 L2554.25,818.5" fill="none" stroke="#85857f" stroke-width="1.5" marker-end="url(#arrow)"/><path d="M803.61,206 L977.64,206 L977.64,356.5 L1009.64,356.5" fill="none" stroke="#85857f" stroke-width="1.5" marker-end="url(#arrow)"/><path d="M803.61,206 L819.61,206 L819.61,189 L2477.25,189 L2477.25,612 L3008.82,612" fill="none" stroke="#85857f" stroke-width="1.5" marker-end="url(#arrow)"/><path d="M803.61,206 L819.61,206 L819.61,189 L1455.64,189 L1455.64,206 L1811.64,206 L1811.64,483 L1982.21,483 L1982.21,546 L2047.21,546" fill="none" stroke="#85857f" stroke-width="1.5" marker-end="url(#arrow)"/><path d="M1762.64,711 L1811.64,711 L1811.64,880 L2310.21,880 L2310.21,820 L2467.25,820 L2467.25,950 L2554.25,950" fill="none" stroke="#85857f" stroke-width="1.5" marker-end="url(#arrow)"/><g data-element="cli.api_cmd"><rect x="2044.21" y="496.5" width="220" height="99" rx="16" fill="none" stroke="#4C8CBF" stroke-width="2"/><rect x="2048.21" y="500.5" width="212" height="91" rx="14" fill="#ffffff" stroke="#d5d5d0" stroke-width="1.3"/>
      <g transform="translate(2234.21 517.5) scale(0.667)" color="#82A6B6" opacity="0.85"><title>Component</title><g fill="none" stroke="currentColor" stroke-width="1.5" stroke-linecap="round" stroke-linejoin="round"><path d="M7 7V4h13v16H7v-3m0-6v2"/><rect x="3" y="7" width="8" height="4" rx="1"/><rect x="3" y="13" width="8" height="4" rx="1"/></g></g>
      <text x="2068.21" y="532.5" font-size="14" font-weight="600" fill="#292927"><tspan x="2068.21" dy="0">API Commands</tspan></text>
      <text x="2068.21" y="556.5" font-size="12" font-weight="400" fill="#6d6d68"><tspan x="2068.21" dy="0">sidecar api serve, open,</tspan><tspan x="2068.21" dy="17">pair and status</tspan></text>
      </g><g data-element="cli.mobile_cmd"><rect x="2044.21" y="373.5" width="220" height="99" rx="16" fill="none" stroke="#B48EAD" stroke-width="2"/><rect x="2048.21" y="377.5" width="212" height="91" rx="14" fill="#ffffff" stroke="#d5d5d0" stroke-width="1.3"/>
      <g transform="translate(2234.21 394.5) scale(0.667)" color="#82A6B6" opacity="0.85"><title>Component</title><g fill="none" stroke="currentColor" stroke-width="1.5" stroke-linecap="round" stroke-linejoin="round"><path d="M7 7V4h13v16H7v-3m0-6v2"/><rect x="3" y="7" width="8" height="4" rx="1"/><rect x="3" y="13" width="8" height="4" rx="1"/></g></g>
      <text x="2068.21" y="409.5" font-size="14" font-weight="600" fill="#292927"><tspan x="2068.21" dy="0">Mobile Commands</tspan></text>
      <text x="2068.21" y="433.5" font-size="12" font-weight="400" fill="#6d6d68"><tspan x="2068.21" dy="0">sidecar mobile serve --stdio</tspan><tspan x="2068.21" dy="17">and mobile sessions</tspan></text>
      </g><g data-element="remoting"><rect data-contains-members="true" x="5309.32" y="639" width="241.55999999999995" height="137" rx="16" fill="none" stroke="#C48282" stroke-width="2" stroke-dasharray="2 5" stroke-linecap="round"/><rect data-contains-members="true" x="5305.32" y="635" width="249.55999999999995" height="145" rx="20" fill="none" stroke="#B48EAD" stroke-width="2" stroke-dasharray="2 5" stroke-linecap="round"/><rect x="5313.32" y="643" width="233.55999999999995" height="129" rx="14" fill="#ffffff" stroke="#d5d5d0" stroke-width="1.3"/>
      <g transform="translate(5520.88 660) scale(0.667)" color="#C48282" opacity="0.85"><title>Subsystem</title><g fill="none" stroke="currentColor" stroke-width="1.5" stroke-linecap="round" stroke-linejoin="round"><rect x="3" y="8" width="13" height="13" rx="2"/><path d="M8 5V3h13v13h-2"/></g></g>
      <text x="5333.32" y="675" font-size="14" font-weight="600" fill="#292927"><tspan x="5333.32" dy="0">Remote Host</tspan><tspan x="5333.32" dy="20">Orchestration</tspan></text>
      <text x="5333.32" y="720" font-size="12" font-weight="400" fill="#6d6d68"><tspan x="5333.32" dy="0">Orchestrates remote Sidecar</tspan><tspan x="5333.32" dy="17">instances and transparently</tspan><tspan x="5333.32" dy="17">executes commands over SSH.</tspan></text>
      </g><g data-element="external.mobile"><rect x="1545.6399999999999" y="363" width="220" height="120" rx="16" fill="none" stroke="#C48282" stroke-width="2"/><rect x="1541.6399999999999" y="359" width="228" height="128" rx="20" fill="none" stroke="#B48EAD" stroke-width="2"/><rect x="1549.6399999999999" y="367" width="212" height="112" rx="14" fill="#ffffff" stroke="#d5d5d0" stroke-width="1.3"/>
      <g transform="translate(1735.64 384) scale(0.667)" color="#C48282" opacity="0.85"><title>Service</title><g fill="none" stroke="currentColor" stroke-width="1.5" stroke-linecap="round" stroke-linejoin="round"><rect x="3" y="4" width="18" height="16" rx="2"/><path d="M3 12h18M7 8h2m-2 8h2"/></g></g>
      <text x="1569.64" y="399" font-size="14" font-weight="600" fill="#292927"><tspan x="1569.64" dy="0">Mobile Companion</tspan><tspan x="1569.64" dy="20">Client</tspan></text>
      <text x="1569.64" y="444" font-size="12" font-weight="400" fill="#6d6d68"><tspan x="1569.64" dy="0">Native iPhone and iPad</tspan><tspan x="1569.64" dy="17">Sessions app over SSH stdio</tspan></text>
      </g><g data-element="external.tailscale"><rect x="1517.6399999999999" y="507" width="247.99999999999991" height="120" rx="16" fill="none" stroke="#E0B84E" stroke-width="2"/><rect x="1521.6399999999999" y="511" width="239.99999999999991" height="112" rx="14" fill="#ffffff" stroke="#d5d5d0" stroke-width="1.3"/>
      <g transform="translate(1735.64 528) scale(0.667)" color="#B59669" opacity="0.85"><title>Service</title><g fill="none" stroke="currentColor" stroke-width="1.5" stroke-linecap="round" stroke-linejoin="round"><rect x="3" y="4" width="18" height="16" rx="2"/><path d="M3 12h18M7 8h2m-2 8h2"/></g></g>
      <text x="1541.64" y="543" font-size="14" font-weight="600" fill="#292927"><tspan x="1541.64" dy="0">tailscale serve</tspan><tspan x="1541.64" dy="20">(tailscaled)</tspan></text>
      <text x="1541.64" y="588" font-size="12" font-weight="400" fill="#6d6d68"><tspan x="1541.64" dy="0">Tailnet HTTPS proxy that adds</tspan><tspan x="1541.64" dy="17">the verified login</tspan></text>
      </g><g data-element="external.untrusted"><rect x="1521.56" y="651" width="244.07999999999996" height="120" rx="16" fill="none" stroke="#D08770" stroke-width="2"/><rect x="1525.56" y="655" width="236.07999999999996" height="112" rx="14" fill="#ffffff" stroke="#d5d5d0" stroke-width="1.3"/>
      <g transform="translate(1735.64 672) scale(0.667)" color="#A0A0A0" opacity="0.85"><title>Actor</title><g fill="none" stroke="currentColor" stroke-width="1.5" stroke-linecap="round" stroke-linejoin="round"><circle cx="12" cy="7" r="4"/><path d="M4 21v-2a6 6 0 0 1 6-6h4a6 6 0 0 1 6 6v2"/></g></g>
      <text x="1545.56" y="687" font-size="14" font-weight="600" fill="#292927"><tspan x="1545.56" dy="0">Other Origins &amp; Local</tspan><tspan x="1545.56" dy="20">Users</tspan></text>
      <text x="1545.56" y="732" font-size="12" font-weight="400" fill="#6d6d68"><tspan x="1545.56" dy="0">Untrusted code that can reach</tspan><tspan x="1545.56" dy="17">a loopback port</tspan></text>
      </g><g data-element="api.local"><rect x="3005.8199999999997" y="554" width="220" height="116" rx="16" fill="none" stroke="#4C8CBF" stroke-width="2"/><rect x="3009.8199999999997" y="558" width="212" height="108" rx="14" fill="#ffffff" stroke="#d5d5d0" stroke-width="1.3"/>
      <g transform="translate(3195.82 575) scale(0.667)" color="#7F9FC4" opacity="0.85"><title>Component</title><g fill="none" stroke="currentColor" stroke-width="1.5" stroke-linecap="round" stroke-linejoin="round"><path d="M7 7V4h13v16H7v-3m0-6v2"/><rect x="3" y="7" width="8" height="4" rx="1"/><rect x="3" y="13" width="8" height="4" rx="1"/></g></g>
      <text x="3029.82" y="590" font-size="14" font-weight="600" fill="#292927"><tspan x="3029.82" dy="0">Local Listener</tspan></text>
      <text x="3029.82" y="614" font-size="12" font-weight="400" fill="#6d6d68"><tspan x="3029.82" dy="0">Trusted 0600 Unix socket;</tspan><tspan x="3029.82" dy="17">pairing and origins only</tspan><tspan x="3029.82" dy="17">here</tspan></text>
      </g><g data-element="api.browser"><rect x="2551.25" y="892" width="220" height="116" rx="16" fill="none" stroke="#D08770" stroke-width="2"/><rect x="2555.25" y="896" width="212" height="108" rx="14" fill="#ffffff" stroke="#d5d5d0" stroke-width="1.3"/>
      <g transform="translate(2741.25 913) scale(0.667)" color="#7F9FC4" opacity="0.85"><title>Component</title><g fill="none" stroke="currentColor" stroke-width="1.5" stroke-linecap="round" stroke-linejoin="round"><path d="M7 7V4h13v16H7v-3m0-6v2"/><rect x="3" y="7" width="8" height="4" rx="1"/><rect x="3" y="13" width="8" height="4" rx="1"/></g></g>
      <text x="2575.25" y="928" font-size="14" font-weight="600" fill="#292927"><tspan x="2575.25" dy="0">Browser Listener</tspan></text>
      <text x="2575.25" y="952" font-size="12" font-weight="400" fill="#6d6d68"><tspan x="2575.25" dy="0">Loopback TCP 127.0.0.1:7861</tspan><tspan x="2575.25" dy="17">for browsers on this</tspan><tspan x="2575.25" dy="17">machine</tspan></text>
      </g><g data-element="api.tailnet"><rect x="2551.25" y="769" width="220" height="99" rx="16" fill="none" stroke="#E0B84E" stroke-width="2"/><rect x="2555.25" y="773" width="212" height="91" rx="14" fill="#ffffff" stroke="#d5d5d0" stroke-width="1.3"/>
      <g transform="translate(2741.25 790) scale(0.667)" color="#7F9FC4" opacity="0.85"><title>Component</title><g fill="none" stroke="currentColor" stroke-width="1.5" stroke-linecap="round" stroke-linejoin="round"><path d="M7 7V4h13v16H7v-3m0-6v2"/><rect x="3" y="7" width="8" height="4" rx="1"/><rect x="3" y="13" width="8" height="4" rx="1"/></g></g>
      <text x="2575.25" y="805" font-size="14" font-weight="600" fill="#292927"><tspan x="2575.25" dy="0">Tailnet Listener</tspan></text>
      <text x="2575.25" y="829" font-size="12" font-weight="400" fill="#6d6d68"><tspan x="2575.25" dy="0">0600 Unix socket behind</tspan><tspan x="2575.25" dy="17">tailscale serve</tspan></text>
      </g><g data-element="api.guards"><rect x="3005.8199999999997" y="881.5" width="220" height="137" rx="16" fill="none" stroke="#D08770" stroke-width="2"/><rect x="3001.8199999999997" y="877.5" width="228" height="145" rx="20" fill="none" stroke="#E0B84E" stroke-width="2"/><rect x="3009.8199999999997" y="885.5" width="212" height="129" rx="14" fill="#ffffff" stroke="#d5d5d0" stroke-width="1.3"/>
      <g transform="translate(3195.82 902.5) scale(0.667)" color="#7F9FC4" opacity="0.85"><title>Component</title><g fill="none" stroke="currentColor" stroke-width="1.5" stroke-linecap="round" stroke-linejoin="round"><path d="M7 7V4h13v16H7v-3m0-6v2"/><rect x="3" y="7" width="8" height="4" rx="1"/><rect x="3" y="13" width="8" height="4" rx="1"/></g></g>
      <text x="3029.82" y="917.5" font-size="14" font-weight="600" fill="#292927"><tspan x="3029.82" dy="0">Request Guards &amp;</tspan><tspan x="3029.82" dy="20">Auth</tspan></text>
      <text x="3029.82" y="962.5" font-size="12" font-weight="400" fill="#6d6d68"><tspan x="3029.82" dy="0">Host, Origin and mutation</tspan><tspan x="3029.82" dy="17">guards, then bearer, ticket</tspan><tspan x="3029.82" dy="17">or tailnet login</tspan></text>
      </g><g data-element="api.pairing"><rect x="3853.6899999999996" y="881.5" width="240.29999999999993" height="137" rx="16" fill="none" stroke="#D08770" stroke-width="2"/><rect x="3857.6899999999996" y="885.5" width="232.29999999999993" height="129" rx="14" fill="#ffffff" stroke="#d5d5d0" stroke-width="1.3"/>
      <g transform="translate(4063.99 902.5) scale(0.667)" color="#7F9FC4" opacity="0.85"><title>Component</title><g fill="none" stroke="currentColor" stroke-width="1.5" stroke-linecap="round" stroke-linejoin="round"><path d="M7 7V4h13v16H7v-3m0-6v2"/><rect x="3" y="7" width="8" height="4" rx="1"/><rect x="3" y="13" width="8" height="4" rx="1"/></g></g>
      <text x="3877.69" y="917.5" font-size="14" font-weight="600" fill="#292927"><tspan x="3877.69" dy="0">Pairing, Sessions &amp;</tspan><tspan x="3877.69" dy="20">Tickets</tspan></text>
      <text x="3877.69" y="962.5" font-size="12" font-weight="400" fill="#6d6d68"><tspan x="3877.69" dy="0">Pairing codes, origin-bound</tspan><tspan x="3877.69" dy="17">session tokens, WebSocket</tspan><tspan x="3877.69" dy="17">tickets</tspan></text>
      </g><g data-element="api.origins"><rect x="4281.26" y="890" width="255.97999999999993" height="120" rx="16" fill="none" stroke="#4C8CBF" stroke-width="2"/><rect x="4285.26" y="894" width="247.97999999999993" height="112" rx="14" fill="#ffffff" stroke="#d5d5d0" stroke-width="1.3"/>
      <g transform="translate(4507.24 911) scale(0.667)" color="#7F9FC4" opacity="0.85"><title>Store</title><g fill="none" stroke="currentColor" stroke-width="1.5" stroke-linecap="round" stroke-linejoin="round"><ellipse cx="12" cy="6" rx="8" ry="3"/><path d="M4 6v12c0 4 16 4 16 0V6M4 12c0 4 16 4 16 0"/></g></g>
      <text x="4305.26" y="926" font-size="14" font-weight="600" fill="#292927"><tspan x="4305.26" dy="0">Paired Origins</tspan><tspan x="4305.26" dy="20">(origins.json)</tspan></text>
      <text x="4305.26" y="971" font-size="12" font-weight="400" fill="#6d6d68"><tspan x="4305.26" dy="0">Mode-0600 registry of paired</tspan><tspan x="4305.26" dy="17">origin token hashes</tspan></text>
      </g><g data-element="api.endpoint"><rect x="2529.25" y="625" width="264" height="120" rx="16" fill="none" stroke="#4C8CBF" stroke-width="2"/><rect x="2533.25" y="629" width="256" height="112" rx="14" fill="#ffffff" stroke="#d5d5d0" stroke-width="1.3"/>
      <g transform="translate(2763.25 646) scale(0.667)" color="#7F9FC4" opacity="0.85"><title>Store</title><g fill="none" stroke="currentColor" stroke-width="1.5" stroke-linecap="round" stroke-linejoin="round"><ellipse cx="12" cy="6" rx="8" ry="3"/><path d="M4 6v12c0 4 16 4 16 0V6M4 12c0 4 16 4 16 0"/></g></g>
      <text x="2553.25" y="661" font-size="14" font-weight="600" fill="#292927"><tspan x="2553.25" dy="0">Endpoint Discovery</tspan><tspan x="2553.25" dy="20">(endpoint.json)</tspan></text>
      <text x="2553.25" y="706" font-size="12" font-weight="400" fill="#6d6d68"><tspan x="2553.25" dy="0">endpoint.json plus serve.lock for</tspan><tspan x="2553.25" dy="17">discovery and single instance</tspan></text>
      </g><g data-element="api.routes"><rect x="3441.3999999999996" y="789" width="212" height="129" rx="14" fill="#ffffff" stroke="#d5d5d0" stroke-width="1.3"/>
      <g transform="translate(3627.4 806) scale(0.667)" color="#7F9FC4" opacity="0.85"><title>Component</title><g fill="none" stroke="currentColor" stroke-width="1.5" stroke-linecap="round" stroke-linejoin="round"><path d="M7 7V4h13v16H7v-3m0-6v2"/><rect x="3" y="7" width="8" height="4" rx="1"/><rect x="3" y="13" width="8" height="4" rx="1"/></g></g>
      <text x="3461.4" y="821" font-size="14" font-weight="600" fill="#292927"><tspan x="3461.4" dy="0">Route Mux</tspan><tspan x="3461.4" dy="20">(/api/v0)</tspan></text>
      <text x="3461.4" y="866" font-size="12" font-weight="400" fill="#6d6d68"><tspan x="3461.4" dy="0">hello, sessions, status,</tspan><tspan x="3461.4" dy="17">tickets, pairing, origins,</tspan><tspan x="3461.4" dy="17">static UI</tspan></text>
      </g><g data-element="api.terminal"><rect x="3857.97" y="724.5" width="231.73999999999992" height="129" rx="14" fill="#ffffff" stroke="#d5d5d0" stroke-width="1.3"/>
      <g transform="translate(4063.71 741.5) scale(0.667)" color="#7F9FC4" opacity="0.85"><title>Component</title><g fill="none" stroke="currentColor" stroke-width="1.5" stroke-linecap="round" stroke-linejoin="round"><path d="M7 7V4h13v16H7v-3m0-6v2"/><rect x="3" y="7" width="8" height="4" rx="1"/><rect x="3" y="13" width="8" height="4" rx="1"/></g></g>
      <text x="3877.97" y="756.5" font-size="14" font-weight="600" fill="#292927"><tspan x="3877.97" dy="0">Terminal WebSocket</tspan><tspan x="3877.97" dy="20">Bridge</tspan></text>
      <text x="3877.97" y="801.5" font-size="12" font-weight="400" fill="#6d6d68"><tspan x="3877.97" dy="0">One WebSocket is one</tspan><tspan x="3877.97" dy="17">unchanged v0 terminal protocol</tspan><tspan x="3877.97" dy="17">stream</tspan></text>
      </g><g data-element="termproto.hub"><rect x="4818.5599999999995" y="647.5" width="264" height="120" rx="16" fill="none" stroke="#B48EAD" stroke-width="2"/><rect x="4822.5599999999995" y="651.5" width="256" height="112" rx="14" fill="#ffffff" stroke="#d5d5d0" stroke-width="1.3"/>
      <g transform="translate(5052.56 668.5) scale(0.667)" color="#C9A06B" opacity="0.85"><title>Component</title><g fill="none" stroke="currentColor" stroke-width="1.5" stroke-linecap="round" stroke-linejoin="round"><path d="M7 7V4h13v16H7v-3m0-6v2"/><rect x="3" y="7" width="8" height="4" rx="1"/><rect x="3" y="13" width="8" height="4" rx="1"/></g></g>
      <text x="4842.56" y="683.5" font-size="14" font-weight="600" fill="#292927"><tspan x="4842.56" dy="0">Protocol Broker &amp; Owner</tspan><tspan x="4842.56" dy="20">Router</tspan></text>
      <text x="4842.56" y="728.5" font-size="12" font-weight="400" fill="#6d6d68"><tspan x="4842.56" dy="0">Routes each stream to the Sidecar</tspan><tspan x="4842.56" dy="17">that owns the terminal</tspan></text>
      </g><g data-element="uiclients.app"><rect x="86.96000000000002" y="296.5" width="230.07999999999996" height="120" rx="16" fill="none" stroke="#D08770" stroke-width="2"/><rect x="90.96000000000002" y="300.5" width="222.07999999999996" height="112" rx="14" fill="#ffffff" stroke="#d5d5d0" stroke-width="1.3"/>
      <g transform="translate(287.04 317.5) scale(0.667)" color="#6FA6A0" opacity="0.85"><title>Component</title><g fill="none" stroke="currentColor" stroke-width="1.5" stroke-linecap="round" stroke-linejoin="round"><path d="M7 7V4h13v16H7v-3m0-6v2"/><rect x="3" y="7" width="8" height="4" rx="1"/><rect x="3" y="13" width="8" height="4" rx="1"/></g></g>
      <text x="110.96" y="332.5" font-size="14" font-weight="600" fill="#292927"><tspan x="110.96" dy="0">sidecar-ui</tspan><tspan x="110.96" dy="20">Reference App</tspan></text>
      <text x="110.96" y="377.5" font-size="12" font-weight="400" fill="#6d6d68"><tspan x="110.96" dy="0">Generic SvelteKit reference</tspan><tspan x="110.96" dy="17">UI, a starting point to fork</tspan></text>
      </g><g data-element="uiclients.elements"><rect x="542.6099999999999" y="288" width="264" height="137" rx="16" fill="none" stroke="#D08770" stroke-width="2"/><rect x="546.6099999999999" y="292" width="256" height="129" rx="14" fill="#ffffff" stroke="#d5d5d0" stroke-width="1.3"/>
      <g transform="translate(776.61 309) scale(0.667)" color="#6FA6A0" opacity="0.85"><title>Component</title><g fill="none" stroke="currentColor" stroke-width="1.5" stroke-linecap="round" stroke-linejoin="round"><path d="M7 7V4h13v16H7v-3m0-6v2"/><rect x="3" y="7" width="8" height="4" rx="1"/><rect x="3" y="13" width="8" height="4" rx="1"/></g></g>
      <text x="566.61" y="324" font-size="14" font-weight="600" fill="#292927"><tspan x="566.61" dy="0">@marcusv/sidecar-</tspan><tspan x="566.61" dy="20">elements</tspan></text>
      <text x="566.61" y="369" font-size="12" font-weight="400" fill="#6d6d68"><tspan x="566.61" dy="0">Framework-agnostic web</tspan><tspan x="566.61" dy="17">components such as</tspan><tspan x="566.61" dy="17">&lt;sidecar-terminal&gt;</tspan></text>
      </g><g data-element="uiclients.sdk"><rect x="1006.6399999999999" y="296.5" width="264" height="120" rx="16" fill="none" stroke="#D08770" stroke-width="2"/><rect x="1010.6399999999999" y="300.5" width="256" height="112" rx="14" fill="#ffffff" stroke="#d5d5d0" stroke-width="1.3"/>
      <g transform="translate(1240.64 317.5) scale(0.667)" color="#6FA6A0" opacity="0.85"><title>Component</title><g fill="none" stroke="currentColor" stroke-width="1.5" stroke-linecap="round" stroke-linejoin="round"><path d="M7 7V4h13v16H7v-3m0-6v2"/><rect x="3" y="7" width="8" height="4" rx="1"/><rect x="3" y="13" width="8" height="4" rx="1"/></g></g>
      <text x="1030.64" y="332.5" font-size="14" font-weight="600" fill="#292927"><tspan x="1030.64" dy="0">@marcusv/sidecar-</tspan><tspan x="1030.64" dy="20">client</tspan></text>
      <text x="1030.64" y="377.5" font-size="12" font-weight="400" fill="#6d6d68"><tspan x="1030.64" dy="0">Typed SDK that owns the hard</tspan><tspan x="1030.64" dy="17">parts of the stream</tspan></text>
      </g><g data-element="uiclients.embedder"><rect x="70" y="152.5" width="264" height="120" rx="16" fill="none" stroke="#D08770" stroke-width="2"/><rect x="74" y="156.5" width="256" height="112" rx="14" fill="#ffffff" stroke="#d5d5d0" stroke-width="1.3"/>
      <g transform="translate(304 173.5) scale(0.667)" color="#6FA6A0" opacity="0.85"><title>Component</title><g fill="none" stroke="currentColor" stroke-width="1.5" stroke-linecap="round" stroke-linejoin="round"><path d="M7 7V4h13v16H7v-3m0-6v2"/><rect x="3" y="7" width="8" height="4" rx="1"/><rect x="3" y="13" width="8" height="4" rx="1"/></g></g>
      <text x="94" y="188.5" font-size="14" font-weight="600" fill="#292927"><tspan x="94" dy="0">Embedding Apps (paired</tspan><tspan x="94" dy="20">origins)</tspan></text>
      <text x="94" y="233.5" font-size="12" font-weight="400" fill="#6d6d68"><tspan x="94" dy="0">Another origin embedding Sidecar</tspan><tspan x="94" dy="17">after api pair --origin</tspan></text>
      </g><g data-element="uiclients.scripts"><rect x="586.6099999999999" y="148" width="220" height="116" rx="16" fill="none" stroke="#4C8CBF" stroke-width="2"/><rect x="590.6099999999999" y="152" width="212" height="108" rx="14" fill="#ffffff" stroke="#d5d5d0" stroke-width="1.3"/>
      <g transform="translate(776.61 169) scale(0.667)" color="#6FA6A0" opacity="0.85"><title>Actor</title><g fill="none" stroke="currentColor" stroke-width="1.5" stroke-linecap="round" stroke-linejoin="round"><circle cx="12" cy="7" r="4"/><path d="M4 21v-2a6 6 0 0 1 6-6h4a6 6 0 0 1 6 6v2"/></g></g>
      <text x="610.61" y="184" font-size="14" font-weight="600" fill="#292927"><tspan x="610.61" dy="0">Agents &amp; Scripts</tspan></text>
      <text x="610.61" y="208" font-size="12" font-weight="400" fill="#6d6d68"><tspan x="610.61" dy="0">Node SDK, curl over the</tspan><tspan x="610.61" dy="17">Local socket, sidecar api</tspan><tspan x="610.61" dy="17">verbs</tspan></text>
      </g><g><rect x="1846.3899999999999" y="429" width="117.06999999999996" height="38" rx="5" fill="#f8f8f6"/><text x="1904.925" y="442" text-anchor="middle" font-size="11" fill="#62625e"><tspan x="1904.925" dy="0">ssh: sidecar mobile</tspan><tspan x="1904.925" dy="15">serve --stdio</tspan></text></g><g><rect x="2344.85" y="614" width="103.75999999999998" height="53" rx="5" fill="#f8f8f6"/><text x="2396.73" y="627" text-anchor="middle" font-size="11" fill="#62625e"><tspan x="2396.73" dy="0">Runs sidecar api</tspan><tspan x="2396.73" dy="15">serve in the</tspan><tspan x="2396.73" dy="15">foreground</tspan></text></g><g><rect x="2342.21" y="691" width="109.03999999999998" height="38" rx="5" fill="#f8f8f6"/><text x="2396.73" y="704" text-anchor="middle" font-size="11" fill="#62625e"><tspan x="2396.73" dy="0">Discovers socket</tspan><tspan x="2396.73" dy="15">and PID</tspan></text></g><g><rect x="2348.0950000000003" y="552" width="97.26999999999998" height="38" rx="5" fill="#f8f8f6"/><text x="2396.7300000000005" y="565" text-anchor="middle" font-size="11" fill="#62625e"><tspan x="2396.7300000000005" dy="0">Pairing codes,</tspan><tspan x="2396.7300000000005" dy="15">origins, status</tspan></text></g><g><rect x="3272.58" y="618" width="118.05999999999997" height="38" rx="5" fill="#f8f8f6"/><text x="3331.61" y="631" text-anchor="middle" font-size="11" fill="#62625e"><tspan x="3331.61" dy="0">Admits every</tspan><tspan x="3331.61" dy="15">request (trusted)</tspan></text></g><g><rect x="2838.25" y="956" width="122.56999999999996" height="53" rx="5" fill="#f8f8f6"/><text x="2899.535" y="969" text-anchor="middle" font-size="11" fill="#62625e"><tspan x="2899.535" dy="0">Host, Origin,</tspan><tspan x="2899.535" dy="15">mutation; bearer or</tspan><tspan x="2899.535" dy="15">ticket</tspan></text></g><g><rect x="2846.005" y="824.5" width="107.05999999999997" height="53" rx="5" fill="#f8f8f6"/><text x="2899.5350000000003" y="837.5" text-anchor="middle" font-size="11" fill="#62625e"><tspan x="2899.5350000000003" dy="0">Host, Origin,</tspan><tspan x="2899.5350000000003" dy="15">mutation; tailnet</tspan><tspan x="2899.5350000000003" dy="15">login</tspan></text></g><g><rect x="3270.8199999999997" y="859.5" width="121.57999999999997" height="38" rx="5" fill="#f8f8f6"/><text x="3331.6099999999997" y="872.5" text-anchor="middle" font-size="11" fill="#62625e"><tspan x="3331.6099999999997" dy="0">Admits an</tspan><tspan x="3331.6099999999997" dy="15">authorized request</tspan></text></g><g><rect x="3487.875" y="956" width="119.04999999999997" height="38" rx="5" fill="#f8f8f6"/><text x="3547.4" y="969" text-anchor="middle" font-size="11" fill="#62625e"><tspan x="3547.4" dy="0">Checks session</tspan><tspan x="3547.4" dy="15">tokens and tickets</tspan></text></g><g><rect x="3702.3999999999996" y="859.5" width="106.28999999999996" height="38" rx="5" fill="#f8f8f6"/><text x="3755.5449999999996" y="872.5" text-anchor="middle" font-size="11" fill="#62625e"><tspan x="3755.5449999999996" dy="0">Codes, exchange,</tspan><tspan x="3755.5449999999996" dy="15">tickets, origins</tspan></text></g><g><rect x="4138.99" y="956" width="97.26999999999998" height="38" rx="5" fill="#f8f8f6"/><text x="4187.625" y="969" text-anchor="middle" font-size="11" fill="#62625e"><tspan x="4187.625" dy="0">Persists origin</tspan><tspan x="4187.625" dy="15">token hashes</tspan></text></g><g><rect x="3702.5099999999998" y="795" width="106.06999999999996" height="38" rx="5" fill="#f8f8f6"/><text x="3755.5449999999996" y="808" text-anchor="middle" font-size="11" fill="#62625e"><tspan x="3755.5449999999996" dy="0">Upgrades GET</tspan><tspan x="3755.5449999999996" dy="15">/api/v0/terminal</tspan></text></g><g><rect x="1853.0449999999998" y="31" width="103.75999999999998" height="38" rx="5" fill="#f8f8f6"/><text x="1904.9249999999997" y="44" text-anchor="middle" font-size="11" fill="#62625e"><tspan x="1904.9249999999997" dy="0">Serves the --ui</tspan><tspan x="1904.9249999999997" dy="15">bundle and /pair</tspan></text></g><g><rect x="4615.24" y="652.5" width="125.31999999999996" height="53" rx="5" fill="#f8f8f6"/><text x="4677.9" y="665.5" text-anchor="middle" font-size="11" fill="#62625e"><tspan x="4677.9" dy="0">Cross-host</tspan><tspan x="4677.9" dy="15">Sessions when hosts</tspan><tspan x="4677.9" dy="15">are configured</tspan></text></g><g><rect x="4625.139999999999" y="795" width="105.51999999999998" height="53" rx="5" fill="#f8f8f6"/><text x="4677.9" y="808" text-anchor="middle" font-size="11" fill="#62625e"><tspan x="4677.9" dy="0">Brokered stream</tspan><tspan x="4677.9" dy="15">when hosts are</tspan><tspan x="4677.9" dy="15">configured</tspan></text></g><g><rect x="3471.85" y="27" width="122.78999999999996" height="23" rx="5" fill="#f8f8f6"/><text x="3533.245" y="40" text-anchor="middle" font-size="11" fill="#62625e"><tspan x="3533.245" dy="0">Hub stream on stdio</tspan></text></g><g><rect x="5160.5599999999995" y="713.5" width="103.75999999999998" height="53" rx="5" fill="#f8f8f6"/><text x="5212.44" y="726.5" text-anchor="middle" font-size="11" fill="#62625e"><tspan x="5212.44" dy="0">Validates route,</tspan><tspan x="5212.44" dy="15">builds SSH owner</tspan><tspan x="5212.44" dy="15">command</tspan></text></g><g><rect x="379" y="362.5" width="118.60999999999996" height="38" rx="5" fill="#f8f8f6"/><text x="438.30499999999995" y="375.5" text-anchor="middle" font-size="11" fill="#62625e"><tspan x="438.30499999999995" dy="0">Composes</tspan><tspan x="438.30499999999995" dy="15">&lt;sidecar-terminal&gt;</tspan></text></g><g><rect x="379" y="172.5" width="118.60999999999996" height="38" rx="5" fill="#f8f8f6"/><text x="438.30499999999995" y="185.5" text-anchor="middle" font-size="11" fill="#62625e"><tspan x="438.30499999999995" dy="0">Embeds</tspan><tspan x="438.30499999999995" dy="15">&lt;sidecar-terminal&gt;</tspan></text></g><g><rect x="851.6099999999999" y="362.5" width="110.02999999999997" height="38" rx="5" fill="#f8f8f6"/><text x="906.6249999999999" y="375.5" text-anchor="middle" font-size="11" fill="#62625e"><tspan x="906.6249999999999" dy="0">Terminal over the</tspan><tspan x="906.6249999999999" dy="15">SDK</tspan></text></g><g><rect x="1843.6399999999999" y="826" width="122.56999999999995" height="38" rx="5" fill="#f8f8f6"/><text x="1904.925" y="839" text-anchor="middle" font-size="11" fill="#62625e"><tspan x="1904.925" dy="0">Bearer HTTP, ticket</tspan><tspan x="1904.925" dy="15">WebSocket</tspan></text></g><g><rect x="1348.6399999999999" y="573" width="90.99999999999999" height="38" rx="5" fill="#f8f8f6"/><text x="1394.1399999999999" y="586" text-anchor="middle" font-size="11" fill="#62625e"><tspan x="1394.1399999999999" dy="0">HTTPS from a</tspan><tspan x="1394.1399999999999" dy="15">tailnet device</tspan></text></g><g><rect x="2104.31" y="751" width="99.79999999999998" height="53" rx="5" fill="#f8f8f6"/><text x="2154.21" y="764" text-anchor="middle" font-size="11" fill="#62625e"><tspan x="2154.21" dy="0">Proxies with</tspan><tspan x="2154.21" dy="15">Tailscale-User-</tspan><tspan x="2154.21" dy="15">Login</tspan></text></g><g><rect x="857.7699999999999" y="212" width="97.71" height="38" rx="5" fill="#f8f8f6"/><text x="906.6249999999999" y="225" text-anchor="middle" font-size="11" fill="#62625e"><tspan x="906.6249999999999" dy="0">Node SDK with a</tspan><tspan x="906.6249999999999" dy="15">bearer token</tspan></text></g><g><rect x="1845.5099999999998" y="195" width="118.82999999999997" height="23" rx="5" fill="#f8f8f6"/><text x="1904.9249999999997" y="208" text-anchor="middle" font-size="11" fill="#62625e"><tspan x="1904.9249999999997" dy="0">curl --unix-socket</tspan></text></g><g><rect x="1581.7299999999998" y="212" width="119.81999999999998" height="38" rx="5" fill="#f8f8f6"/><text x="1641.6399999999999" y="225" text-anchor="middle" font-size="11" fill="#62625e"><tspan x="1641.6399999999999" dy="0">sidecar api status,</tspan><tspan x="1641.6399999999999" dy="15">open, pair</tspan></text></g><g><rect x="2101.45" y="886" width="105.51999999999997" height="53" rx="5" fill="#f8f8f6"/><text x="2154.2099999999996" y="899" text-anchor="middle" font-size="11" fill="#62625e"><tspan x="2154.2099999999996" dy="0">Cross-site,</tspan><tspan x="2154.2099999999996" dy="15">rebinding, other</tspan><tspan x="2154.2099999999996" dy="15">users (refused)</tspan></text></g></g>
  <g data-export-layer="legend"><circle cx="100" cy="952" r="4" fill="none" stroke="#B59669" stroke-width="1.5"/><text x="112" y="958" font-size="14" fill="#5e5e59">Multiplexer &amp; PTY Boundary</text><circle cx="334.49999999999994" cy="952" r="4" fill="none" stroke="#9A91C4" stroke-width="1.5"/><text x="346.49999999999994" y="958" font-size="14" fill="#5e5e59">Agent Lifecycle &amp; Sandbox</text><circle cx="559.3399999999999" cy="952" r="4" fill="#C48282"/><text x="571.3399999999999" y="958" font-size="14" fill="#5e5e59">Host Remoting &amp; Protocols</text><circle cx="784.1799999999998" cy="952" r="4" fill="#4C8CBF"/><text x="796.1799999999998" y="958" font-size="14" fill="#5e5e59">Your Unix-Socket Boundary</text><circle cx="1015.7399999999998" cy="952" r="4" fill="#D08770"/><text x="1027.7399999999998" y="958" font-size="14" fill="#5e5e59">Loopback Browser Boundary</text><circle cx="1250.7999999999997" cy="952" r="4" fill="#E0B84E"/><text x="1262.7999999999997" y="958" font-size="14" fill="#5e5e59">Tailnet Boundary</text><circle cx="1410.2599999999998" cy="952" r="4" fill="#B48EAD"/><text x="1422.2599999999998" y="958" font-size="14" fill="#5e5e59">SSH Boundary</text></g><path d="M96 1010H1824" stroke="#ddddda"/><text x="96" y="1044" font-size="13" fill="#7d7d77">AUTHORITY &amp; TRUST · EXACT MEMBER OUTLINES · DOTTED = CONTAINS MEMBERS · 3 BOUNDARIES NOT IN VIEW · CURRENT SYSTEM</text><text x="1824" y="1044" text-anchor="end" font-size="13" fill="#7d7d77">11 external connections outside view</text></g></svg>
