<svg xmlns="http://www.w3.org/2000/svg" width="1920" height="1080" viewBox="0 0 1920 1080" role="img" aria-labelledby="title description" data-theme="grove" data-theme-appearance="light">
  <title id="title">Sidecar / Inside sidecar api serve</title><desc id="description">Three listeners, one route set: how the UI API host admits a caller and hands each terminal WebSocket to the shared terminal protocol, with generated schemas and deterministic fixture development.. Architecture structure.</desc>
  <defs><marker id="arrow" viewBox="0 0 10 10" refX="9" refY="5" markerWidth="5" markerHeight="5" orient="auto-start-reverse"><path d="M 0 0 L 10 5 L 0 10 z" fill="#84948b"/></marker></defs>
  <rect width="1920" height="1080" fill="#fafbf8"/>
  <g font-family="Arial, Helvetica, sans-serif"><text x="96" y="58" font-size="12" letter-spacing="3" fill="#607c69">FRACTAL / SYSTEM MODEL</text>
  <g data-export-layer="title"><text x="96" y="116" font-size="48" font-weight="600" fill="#243b34"><tspan x="96" dy="0">Sidecar / Inside sidecar api serve</tspan></text></g>
  <g data-export-layer="subtitle"><text x="96" y="170" font-size="19" font-weight="400" fill="#6e7d72"><tspan x="96" dy="0">Three listeners, one route set: how the UI API host admits a caller and hands each terminal WebSocket to the shared terminal protocol, with generated schemas and deterministic</tspan><tspan x="96" dy="26">fixture development.</tspan></text></g>
  <g data-export-layer="diagram" transform="translate(96 342.752) scale(0.611)"><g data-element="api"><rect x="416.07" y="107" width="2049.99" height="704.5" rx="14" fill="#f4f6f3" stroke="#d9e0da" stroke-width="1.3"/>
      <g transform="translate(2440.06 124) scale(0.667)" color="#7F9FC4" opacity="0.85"><title>Subsystem</title><g fill="none" stroke="currentColor" stroke-width="1.5" stroke-linecap="round" stroke-linejoin="round"><rect x="3" y="8" width="13" height="13" rx="2"/><path d="M8 5V3h13v13h-2"/></g></g>
      <text x="440.07" y="137" font-size="14" font-weight="600" fill="#243b34"><tspan x="440.07" dy="0">UI API Host (sidecar api serve)</tspan></text>
      <text x="436.07" y="161" font-size="12" font-weight="400" fill="#67746e"></text>
      </g><path d="M160.5,451 L361.07,451 L361.07,572.5 L415.07,572.5" fill="none" stroke="#84948b" stroke-width="1.5" marker-end="url(#arrow)"/><path d="M160.5,451 L196.5,451 L196.5,310.5 L371.07,310.5 L371.07,511 L440.07,511" fill="none" stroke="#84948b" stroke-width="1.5" marker-end="url(#arrow)"/><path d="M160.5,451 L196.5,451 L196.5,561.5 L351.07,561.5 L351.07,583 L916.64,583" fill="none" stroke="#84948b" stroke-width="1.5" marker-end="url(#arrow)"/><path d="M1130.64,583 L1348.22,583" fill="none" stroke="#84948b" stroke-width="1.5" marker-end="url(#arrow)"/><path d="M676.07,369 L916.64,369" fill="none" stroke="#84948b" stroke-width="1.5" marker-end="url(#arrow)"/><path d="M676.07,237.5 L884.64,237.5 L884.64,369 L916.64,369" fill="none" stroke="#84948b" stroke-width="1.5" marker-end="url(#arrow)"/><path d="M1130.64,369 L1316.22,369 L1316.22,583 L1348.22,583" fill="none" stroke="#84948b" stroke-width="1.5" marker-end="url(#arrow)"/><path d="M1130.64,369 L1146.64,369 L1146.64,352 L1764.51,352" fill="none" stroke="#84948b" stroke-width="1.5" marker-end="url(#arrow)"/><path d="M1562.22,583 L1578.22,583 L1578.22,292 L1732.51,292 L1732.51,352 L1764.51,352" fill="none" stroke="#84948b" stroke-width="1.5" marker-end="url(#arrow)"/><path d="M1998.81,352 L2192.08,352" fill="none" stroke="#84948b" stroke-width="1.5" marker-end="url(#arrow)"/><path d="M1562.22,583 L1732.51,583 L1732.51,723 L1764.79,723" fill="none" stroke="#84948b" stroke-width="1.5" marker-end="url(#arrow)"/><path d="M1562.22,583 L1578.22,583 L1578.22,566 L2491.06,566 L2491.06,44.5 L24,44.5 L24,383 L73.3,383" fill="none" stroke="#84948b" stroke-width="1.5" marker-end="url(#arrow)"/><path d="M1562.22,583 L1578.22,583 L1578.22,566 L2491.06,566 L2491.06,649 L2664.38,649 L2664.38,797 L2696.38,797" fill="none" stroke="#84948b" stroke-width="1.5" marker-end="url(#arrow)"/><path d="M1562.22,583 L1578.22,583 L1578.22,566 L2491.06,566 L2491.06,575 L2664.38,575 L2664.38,797 L2696.38,797" fill="none" stroke="#84948b" stroke-width="1.5" marker-end="url(#arrow)"/><path d="M1998.53,723 L2491.06,723 L2491.06,797 L2696.38,797" fill="none" stroke="#84948b" stroke-width="1.5" marker-end="url(#arrow)"/><path d="M1998.53,723 L2664.38,723 L2664.38,797 L2696.38,797" fill="none" stroke="#84948b" stroke-width="1.5" marker-end="url(#arrow)"/><path d="M160.5,383 L186.5,383 L186.5,177.5 L381.07,177.5 L381.07,369 L462.07,369" fill="none" stroke="#84948b" stroke-width="1.5" marker-end="url(#arrow)"/><path d="M160.5,244 L176.5,244 L176.5,111 L391.07,111 L391.07,237.5 L462.07,237.5" fill="none" stroke="#84948b" stroke-width="1.5" marker-end="url(#arrow)"/><path d="M160.5,383 L186.5,383 L186.5,510 L351.07,510 L351.07,583 L916.64,583" fill="none" stroke="#84948b" stroke-width="1.5" marker-end="url(#arrow)"/><path d="M160.5,244 L381.07,244 L381.07,369 L462.07,369" fill="none" stroke="#84948b" stroke-width="1.5" marker-end="url(#arrow)"/><path d="M160.5,451 L196.5,451 L196.5,377 L361.07,377 L361.07,572.5 L415.07,572.5" fill="none" stroke="#84948b" stroke-width="1.5" marker-end="url(#arrow)"/><path d="M160.5,451 L196.5,451 L196.5,613 L351.07,613 L351.07,664.5 L440.07,664.5" fill="none" stroke="#84948b" stroke-width="1.5" marker-end="url(#arrow)"/><path d="M160.5,383 L186.5,383 L186.5,664.5 L440.07,664.5" fill="none" stroke="#84948b" stroke-width="1.5" marker-end="url(#arrow)"/><path d="M1130.64,723 L1146.64,723 L1146.64,663 L1316.22,663 L1316.22,583 L1348.22,583" fill="none" stroke="#84948b" stroke-width="1.5" marker-end="url(#arrow)"/><path d="M1130.64,723 L1764.79,723" fill="none" stroke="#84948b" stroke-width="1.5" marker-end="url(#arrow)"/><g data-element="api.local"><rect x="917.6399999999999" y="529" width="212" height="108" rx="14" fill="#ffffff" stroke="#d9e0da" stroke-width="1.3"/>
      <g transform="translate(1103.64 546) scale(0.667)" color="#7F9FC4" opacity="0.85"><title>Component</title><g fill="none" stroke="currentColor" stroke-width="1.5" stroke-linecap="round" stroke-linejoin="round"><path d="M7 7V4h13v16H7v-3m0-6v2"/><rect x="3" y="7" width="8" height="4" rx="1"/><rect x="3" y="13" width="8" height="4" rx="1"/></g></g>
      <text x="937.64" y="561" font-size="14" font-weight="600" fill="#243b34"><tspan x="937.64" dy="0">Local Listener</tspan></text>
      <text x="937.64" y="585" font-size="12" font-weight="400" fill="#67746e"><tspan x="937.64" dy="0">Trusted 0600 Unix socket;</tspan><tspan x="937.64" dy="17">pairing and origins only</tspan><tspan x="937.64" dy="17">here</tspan></text>
      </g><g data-element="api.browser"><rect x="463.07" y="315" width="212" height="108" rx="14" fill="#ffffff" stroke="#d9e0da" stroke-width="1.3"/>
      <g transform="translate(649.07 332) scale(0.667)" color="#7F9FC4" opacity="0.85"><title>Component</title><g fill="none" stroke="currentColor" stroke-width="1.5" stroke-linecap="round" stroke-linejoin="round"><path d="M7 7V4h13v16H7v-3m0-6v2"/><rect x="3" y="7" width="8" height="4" rx="1"/><rect x="3" y="13" width="8" height="4" rx="1"/></g></g>
      <text x="483.07" y="347" font-size="14" font-weight="600" fill="#243b34"><tspan x="483.07" dy="0">Browser Listener</tspan></text>
      <text x="483.07" y="371" font-size="12" font-weight="400" fill="#67746e"><tspan x="483.07" dy="0">Loopback TCP 127.0.0.1:7861</tspan><tspan x="483.07" dy="17">for browsers on this</tspan><tspan x="483.07" dy="17">machine</tspan></text>
      </g><g data-element="api.tailnet"><rect x="463.07" y="192" width="212" height="91" rx="14" fill="#ffffff" stroke="#d9e0da" stroke-width="1.3"/>
      <g transform="translate(649.07 209) scale(0.667)" color="#7F9FC4" opacity="0.85"><title>Component</title><g fill="none" stroke="currentColor" stroke-width="1.5" stroke-linecap="round" stroke-linejoin="round"><path d="M7 7V4h13v16H7v-3m0-6v2"/><rect x="3" y="7" width="8" height="4" rx="1"/><rect x="3" y="13" width="8" height="4" rx="1"/></g></g>
      <text x="483.07" y="224" font-size="14" font-weight="600" fill="#243b34"><tspan x="483.07" dy="0">Tailnet Listener</tspan></text>
      <text x="483.07" y="248" font-size="12" font-weight="400" fill="#67746e"><tspan x="483.07" dy="0">0600 Unix socket behind</tspan><tspan x="483.07" dy="17">tailscale serve</tspan></text>
      </g><g data-element="api.guards"><rect x="917.6399999999999" y="304.5" width="212" height="129" rx="14" fill="#ffffff" stroke="#d9e0da" stroke-width="1.3"/>
      <g transform="translate(1103.64 321.5) scale(0.667)" color="#7F9FC4" opacity="0.85"><title>Component</title><g fill="none" stroke="currentColor" stroke-width="1.5" stroke-linecap="round" stroke-linejoin="round"><path d="M7 7V4h13v16H7v-3m0-6v2"/><rect x="3" y="7" width="8" height="4" rx="1"/><rect x="3" y="13" width="8" height="4" rx="1"/></g></g>
      <text x="937.64" y="336.5" font-size="14" font-weight="600" fill="#243b34"><tspan x="937.64" dy="0">Request Guards &amp;</tspan><tspan x="937.64" dy="20">Auth</tspan></text>
      <text x="937.64" y="381.5" font-size="12" font-weight="400" fill="#67746e"><tspan x="937.64" dy="0">Host, Origin and mutation</tspan><tspan x="937.64" dy="17">guards, then bearer, ticket</tspan><tspan x="937.64" dy="17">or tailnet login</tspan></text>
      </g><g data-element="api.pairing"><rect x="1765.5099999999998" y="287.5" width="232.29999999999993" height="129" rx="14" fill="#ffffff" stroke="#d9e0da" stroke-width="1.3"/>
      <g transform="translate(1971.81 304.5) scale(0.667)" color="#7F9FC4" opacity="0.85"><title>Component</title><g fill="none" stroke="currentColor" stroke-width="1.5" stroke-linecap="round" stroke-linejoin="round"><path d="M7 7V4h13v16H7v-3m0-6v2"/><rect x="3" y="7" width="8" height="4" rx="1"/><rect x="3" y="13" width="8" height="4" rx="1"/></g></g>
      <text x="1785.51" y="319.5" font-size="14" font-weight="600" fill="#243b34"><tspan x="1785.51" dy="0">Pairing, Sessions &amp;</tspan><tspan x="1785.51" dy="20">Tickets</tspan></text>
      <text x="1785.51" y="364.5" font-size="12" font-weight="400" fill="#67746e"><tspan x="1785.51" dy="0">Pairing codes, origin-bound</tspan><tspan x="1785.51" dy="17">session tokens, WebSocket</tspan><tspan x="1785.51" dy="17">tickets</tspan></text>
      </g><g data-element="api.origins"><rect x="2193.08" y="296" width="247.97999999999993" height="112" rx="14" fill="#ffffff" stroke="#d9e0da" stroke-width="1.3"/>
      <g transform="translate(2415.06 313) scale(0.667)" color="#7F9FC4" opacity="0.85"><title>Store</title><g fill="none" stroke="currentColor" stroke-width="1.5" stroke-linecap="round" stroke-linejoin="round"><ellipse cx="12" cy="6" rx="8" ry="3"/><path d="M4 6v12c0 4 16 4 16 0V6M4 12c0 4 16 4 16 0"/></g></g>
      <text x="2213.08" y="328" font-size="14" font-weight="600" fill="#243b34"><tspan x="2213.08" dy="0">Paired Origins</tspan><tspan x="2213.08" dy="20">(origins.json)</tspan></text>
      <text x="2213.08" y="373" font-size="12" font-weight="400" fill="#67746e"><tspan x="2213.08" dy="0">Mode-0600 registry of paired</tspan><tspan x="2213.08" dy="17">origin token hashes</tspan></text>
      </g><g data-element="api.endpoint"><rect x="441.07" y="455" width="256" height="112" rx="14" fill="#ffffff" stroke="#d9e0da" stroke-width="1.3"/>
      <g transform="translate(671.07 472) scale(0.667)" color="#7F9FC4" opacity="0.85"><title>Store</title><g fill="none" stroke="currentColor" stroke-width="1.5" stroke-linecap="round" stroke-linejoin="round"><ellipse cx="12" cy="6" rx="8" ry="3"/><path d="M4 6v12c0 4 16 4 16 0V6M4 12c0 4 16 4 16 0"/></g></g>
      <text x="461.07" y="487" font-size="14" font-weight="600" fill="#243b34"><tspan x="461.07" dy="0">Endpoint Discovery</tspan><tspan x="461.07" dy="20">(endpoint.json)</tspan></text>
      <text x="461.07" y="532" font-size="12" font-weight="400" fill="#67746e"><tspan x="461.07" dy="0">endpoint.json plus serve.lock for</tspan><tspan x="461.07" dy="17">discovery and single instance</tspan></text>
      </g><g data-element="api.routes"><rect x="1349.2199999999998" y="518.5" width="212" height="129" rx="14" fill="#ffffff" stroke="#d9e0da" stroke-width="1.3"/>
      <g transform="translate(1535.22 535.5) scale(0.667)" color="#7F9FC4" opacity="0.85"><title>Component</title><g fill="none" stroke="currentColor" stroke-width="1.5" stroke-linecap="round" stroke-linejoin="round"><path d="M7 7V4h13v16H7v-3m0-6v2"/><rect x="3" y="7" width="8" height="4" rx="1"/><rect x="3" y="13" width="8" height="4" rx="1"/></g></g>
      <text x="1369.22" y="550.5" font-size="14" font-weight="600" fill="#243b34"><tspan x="1369.22" dy="0">Route Mux</tspan><tspan x="1369.22" dy="20">(/api/v0)</tspan></text>
      <text x="1369.22" y="595.5" font-size="12" font-weight="400" fill="#67746e"><tspan x="1369.22" dy="0">hello, sessions, status,</tspan><tspan x="1369.22" dy="17">tickets, pairing, origins,</tspan><tspan x="1369.22" dy="17">static UI</tspan></text>
      </g><g data-element="api.terminal"><rect x="1765.7899999999997" y="658.5" width="231.73999999999992" height="129" rx="14" fill="#ffffff" stroke="#d9e0da" stroke-width="1.3"/>
      <g transform="translate(1971.53 675.5) scale(0.667)" color="#7F9FC4" opacity="0.85"><title>Component</title><g fill="none" stroke="currentColor" stroke-width="1.5" stroke-linecap="round" stroke-linejoin="round"><path d="M7 7V4h13v16H7v-3m0-6v2"/><rect x="3" y="7" width="8" height="4" rx="1"/><rect x="3" y="13" width="8" height="4" rx="1"/></g></g>
      <text x="1785.79" y="690.5" font-size="14" font-weight="600" fill="#243b34"><tspan x="1785.79" dy="0">Terminal WebSocket</tspan><tspan x="1785.79" dy="20">Bridge</tspan></text>
      <text x="1785.79" y="735.5" font-size="12" font-weight="400" fill="#67746e"><tspan x="1785.79" dy="0">One WebSocket is one</tspan><tspan x="1785.79" dy="17">unchanged v0 terminal protocol</tspan><tspan x="1785.79" dy="17">stream</tspan></text>
      </g><g data-element="api.spec"><rect x="441.07" y="600" width="217.87999999999997" height="129" rx="14" fill="#ffffff" stroke="#d9e0da" stroke-width="1.3"/>
      <g transform="translate(632.95 617) scale(0.667)" color="#7F9FC4" opacity="0.85"><title>Component</title><g fill="none" stroke="currentColor" stroke-width="1.5" stroke-linecap="round" stroke-linejoin="round"><path d="M7 7V4h13v16H7v-3m0-6v2"/><rect x="3" y="7" width="8" height="4" rx="1"/><rect x="3" y="13" width="8" height="4" rx="1"/></g></g>
      <text x="461.07" y="632" font-size="14" font-weight="600" fill="#243b34"><tspan x="461.07" dy="0">Contract Spec &amp;</tspan><tspan x="461.07" dy="20">Schemas</tspan></text>
      <text x="461.07" y="677" font-size="12" font-weight="400" fill="#67746e"><tspan x="461.07" dy="0">sidecar api spec: generated</tspan><tspan x="461.07" dy="17">OpenAPI 3.1 and stream</tspan><tspan x="461.07" dy="17">schemas</tspan></text>
      </g><g data-element="api.fixtures"><rect x="917.6399999999999" y="669" width="212" height="108" rx="14" fill="#ffffff" stroke="#d9e0da" stroke-width="1.3"/>
      <g transform="translate(1103.64 686) scale(0.667)" color="#7F9FC4" opacity="0.85"><title>Adapter</title><g fill="none" stroke="currentColor" stroke-width="1.5" stroke-linecap="round" stroke-linejoin="round"><path d="M3 7h14l-3-3m3 3-3 3M21 17H7l3-3m-3 3 3 3"/></g></g>
      <text x="937.64" y="701" font-size="14" font-weight="600" fill="#243b34"><tspan x="937.64" dy="0">Fixture Backend</tspan></text>
      <text x="937.64" y="725" font-size="12" font-weight="400" fill="#67746e"><tspan x="937.64" dy="0">api serve --fixtures:</tspan><tspan x="937.64" dy="17">recorded resources and</tspan><tspan x="937.64" dy="17">deterministic echo</tspan></text>
      </g><g data-outside-port="cli" transform="translate(41 433)" role="group" aria-label="Outside scope: Non-Interactive CLI. 5 connections."><rect width="118.5" height="36" rx="7" fill="#ffffff" stroke="#78867c" stroke-width="1.2"/><text x="59.25" y="17" text-anchor="middle" font-size="10" font-weight="600" fill="#243b34">Non-Interactive CLI</text><text x="59.25" y="29" text-anchor="middle" font-size="8" fill="#67746e">outside scope</text></g><g data-outside-port="uiclients" transform="translate(74.3 365)" role="group" aria-label="Outside scope: UI API Clients. 4 connections."><rect width="85.2" height="36" rx="7" fill="#ffffff" stroke="#78867c" stroke-width="1.2"/><text x="42.6" y="17" text-anchor="middle" font-size="10" font-weight="600" fill="#243b34">UI API Clients</text><text x="42.6" y="29" text-anchor="middle" font-size="8" fill="#67746e">outside scope</text></g><g data-outside-port="termproto" transform="translate(2697.38 773.5)" role="group" aria-label="Outside scope: Headless Terminal Protocol. 4 connections."><rect width="107.1" height="47" rx="7" fill="#ffffff" stroke="#78867c" stroke-width="1.2"/><text x="53.55" y="17" text-anchor="middle" font-size="10" font-weight="600" fill="#243b34">Headless Terminal</text><text x="53.55" y="28" text-anchor="middle" font-size="10" font-weight="600" fill="#243b34">Protocol</text><text x="53.55" y="40" text-anchor="middle" font-size="8" fill="#67746e">outside scope</text></g><g data-outside-port="external" transform="translate(44 220.5)" role="group" aria-label="Outside scope: External Systems &amp; Runtimes. 2 connections."><rect width="115.5" height="47" rx="7" fill="#ffffff" stroke="#78867c" stroke-width="1.2"/><text x="57.75" y="17" text-anchor="middle" font-size="10" font-weight="600" fill="#243b34">External Systems &amp;</text><text x="57.75" y="28" text-anchor="middle" font-size="10" font-weight="600" fill="#243b34">Runtimes</text><text x="57.75" y="40" text-anchor="middle" font-size="8" fill="#67746e">outside scope</text></g><g><rect x="221.90500000000003" y="426" width="103.75999999999998" height="53" rx="5" fill="#fafbf8"/><text x="273.785" y="439" text-anchor="middle" font-size="11" fill="#66766d"><tspan x="273.785" dy="0">Runs sidecar api</tspan><tspan x="273.785" dy="15">serve in the</tspan><tspan x="273.785" dy="15">foreground</tspan></text></g><g><rect x="219.26500000000004" y="293" width="109.03999999999998" height="38" rx="5" fill="#fafbf8"/><text x="273.785" y="306" text-anchor="middle" font-size="11" fill="#66766d"><tspan x="273.785" dy="0">Discovers socket</tspan><tspan x="273.785" dy="15">and PID</tspan></text></g><g><rect x="225.15000000000003" y="544" width="97.26999999999998" height="38" rx="5" fill="#fafbf8"/><text x="273.785" y="557" text-anchor="middle" font-size="11" fill="#66766d"><tspan x="273.785" dy="0">Pairing codes,</tspan><tspan x="273.785" dy="15">origins, status</tspan></text></g><g><rect x="1180.3999999999999" y="589" width="118.05999999999997" height="38" rx="5" fill="#fafbf8"/><text x="1239.4299999999998" y="602" text-anchor="middle" font-size="11" fill="#66766d"><tspan x="1239.4299999999998" dy="0">Admits every</tspan><tspan x="1239.4299999999998" dy="15">request (trusted)</tspan></text></g><g><rect x="746.0699999999999" y="375" width="122.56999999999996" height="53" rx="5" fill="#fafbf8"/><text x="807.3549999999999" y="388" text-anchor="middle" font-size="11" fill="#66766d"><tspan x="807.3549999999999" dy="0">Host, Origin,</tspan><tspan x="807.3549999999999" dy="15">mutation; bearer or</tspan><tspan x="807.3549999999999" dy="15">ticket</tspan></text></g><g><rect x="753.825" y="243.5" width="107.05999999999997" height="53" rx="5" fill="#fafbf8"/><text x="807.355" y="256.5" text-anchor="middle" font-size="11" fill="#66766d"><tspan x="807.355" dy="0">Host, Origin,</tspan><tspan x="807.355" dy="15">mutation; tailnet</tspan><tspan x="807.355" dy="15">login</tspan></text></g><g><rect x="1178.6399999999999" y="375" width="121.57999999999997" height="38" rx="5" fill="#fafbf8"/><text x="1239.4299999999998" y="388" text-anchor="middle" font-size="11" fill="#66766d"><tspan x="1239.4299999999998" dy="0">Admits an</tspan><tspan x="1239.4299999999998" dy="15">authorized request</tspan></text></g><g><rect x="1395.695" y="312" width="119.04999999999997" height="38" rx="5" fill="#fafbf8"/><text x="1455.22" y="325" text-anchor="middle" font-size="11" fill="#66766d"><tspan x="1455.22" dy="0">Checks session</tspan><tspan x="1455.22" dy="15">tokens and tickets</tspan></text></g><g><rect x="1610.2199999999998" y="298" width="106.28999999999996" height="38" rx="5" fill="#fafbf8"/><text x="1663.3649999999998" y="311" text-anchor="middle" font-size="11" fill="#66766d"><tspan x="1663.3649999999998" dy="0">Codes, exchange,</tspan><tspan x="1663.3649999999998" dy="15">tickets, origins</tspan></text></g><g><rect x="2046.8099999999997" y="312" width="97.26999999999998" height="38" rx="5" fill="#fafbf8"/><text x="2095.4449999999997" y="325" text-anchor="middle" font-size="11" fill="#66766d"><tspan x="2095.4449999999997" dy="0">Persists origin</tspan><tspan x="2095.4449999999997" dy="15">token hashes</tspan></text></g><g><rect x="1610.3299999999997" y="589" width="106.06999999999996" height="38" rx="5" fill="#fafbf8"/><text x="1663.3649999999998" y="602" text-anchor="middle" font-size="11" fill="#66766d"><tspan x="1663.3649999999998" dy="0">Upgrades GET</tspan><tspan x="1663.3649999999998" dy="15">/api/v0/terminal</tspan></text></g><g><rect x="221.90500000000003" y="27" width="103.75999999999998" height="38" rx="5" fill="#fafbf8"/><text x="273.785" y="40" text-anchor="middle" font-size="11" fill="#66766d"><tspan x="273.785" dy="0">Serves the --ui</tspan><tspan x="273.785" dy="15">bundle and /pair</tspan></text></g><g><rect x="2531.31" y="624" width="108.81999999999996" height="53" rx="5" fill="#fafbf8"/><text x="2585.72" y="637" text-anchor="middle" font-size="11" fill="#66766d"><tspan x="2585.72" dy="0">GET</tspan><tspan x="2585.72" dy="15">/api/v0/sessions</tspan><tspan x="2585.72" dy="15">(local)</tspan></text></g><g><rect x="2523.06" y="550" width="125.31999999999996" height="53" rx="5" fill="#fafbf8"/><text x="2585.72" y="563" text-anchor="middle" font-size="11" fill="#66766d"><tspan x="2585.72" dy="0">Cross-host</tspan><tspan x="2585.72" dy="15">Sessions when hosts</tspan><tspan x="2585.72" dy="15">are configured</tspan></text></g><g><rect x="2529.22" y="772" width="112.99999999999996" height="53" rx="5" fill="#fafbf8"/><text x="2585.72" y="785" text-anchor="middle" font-size="11" fill="#66766d"><tspan x="2585.72" dy="0">One v0 stream per</tspan><tspan x="2585.72" dy="15">WebSocket,</tspan><tspan x="2585.72" dy="15">in-process</tspan></text></g><g><rect x="2532.96" y="698" width="105.51999999999998" height="53" rx="5" fill="#fafbf8"/><text x="2585.7200000000003" y="711" text-anchor="middle" font-size="11" fill="#66766d"><tspan x="2585.7200000000003" dy="0">Brokered stream</tspan><tspan x="2585.7200000000003" dy="15">when hosts are</tspan><tspan x="2585.7200000000003" dy="15">configured</tspan></text></g><g><rect x="212.50000000000006" y="160" width="122.56999999999995" height="38" rx="5" fill="#fafbf8"/><text x="273.785" y="173" text-anchor="middle" font-size="11" fill="#66766d"><tspan x="273.785" dy="0">Bearer HTTP, ticket</tspan><tspan x="273.785" dy="15">WebSocket</tspan></text></g><g><rect x="223.88500000000005" y="86" width="99.79999999999998" height="53" rx="5" fill="#fafbf8"/><text x="273.785" y="99" text-anchor="middle" font-size="11" fill="#66766d"><tspan x="273.785" dy="0">Proxies with</tspan><tspan x="273.785" dy="15">Tailscale-User-</tspan><tspan x="273.785" dy="15">Login</tspan></text></g><g><rect x="214.37000000000003" y="500" width="118.82999999999997" height="23" rx="5" fill="#fafbf8"/><text x="273.785" y="513" text-anchor="middle" font-size="11" fill="#66766d"><tspan x="273.785" dy="0">curl --unix-socket</tspan></text></g><g><rect x="221.02500000000003" y="219" width="105.51999999999997" height="53" rx="5" fill="#fafbf8"/><text x="273.785" y="232" text-anchor="middle" font-size="11" fill="#66766d"><tspan x="273.785" dy="0">Cross-site,</tspan><tspan x="273.785" dy="15">rebinding, other</tspan><tspan x="273.785" dy="15">users (refused)</tspan></text></g><g><rect x="212.50000000000003" y="352" width="122.56999999999998" height="53" rx="5" fill="#fafbf8"/><text x="273.785" y="365" text-anchor="middle" font-size="11" fill="#66766d"><tspan x="273.785" dy="0">Keeps api serve</tspan><tspan x="273.785" dy="15">running (launchd or</tspan><tspan x="273.785" dy="15">systemd)</tspan></text></g><g><rect x="221.90500000000003" y="603" width="103.75999999999999" height="23" rx="5" fill="#fafbf8"/><text x="273.785" y="616" text-anchor="middle" font-size="11" fill="#66766d"><tspan x="273.785" dy="0">sidecar api spec</tspan></text></g><g><rect x="223.66500000000002" y="647" width="100.23999999999998" height="38" rx="5" fill="#fafbf8"/><text x="273.785" y="660" text-anchor="middle" font-size="11" fill="#66766d"><tspan x="273.785" dy="0">Reads the whole</tspan><tspan x="273.785" dy="15">contract</tspan></text></g><g><rect x="1180.0149999999999" y="669" width="118.82999999999997" height="38" rx="5" fill="#fafbf8"/><text x="1239.4299999999998" y="682" text-anchor="middle" font-size="11" fill="#66766d"><tspan x="1239.4299999999998" dy="0">Recorded sessions,</tspan><tspan x="1239.4299999999998" dy="15">no tmux</tspan></text></g><g><rect x="1394.4299999999998" y="729" width="121.57999999999998" height="38" rx="5" fill="#fafbf8"/><text x="1455.2199999999998" y="742" text-anchor="middle" font-size="11" fill="#66766d"><tspan x="1455.2199999999998" dy="0">Real protocol,</tspan><tspan x="1455.2199999999998" dy="15">synthetic captures</tspan></text></g></g>
  <g data-export-layer="legend"></g><path d="M96 1010H1824" stroke="#dce2db"/><text x="96" y="1044" font-size="13" fill="#78867c">STRUCTURE · CURRENT SYSTEM</text><text x="1824" y="1044" text-anchor="end" font-size="13" fill="#78867c">FOCUS: UI API Host (sidecar api serve) · 15 external connections drawn as outside ports</text></g></svg>
